<svg xmlns="http://www.w3.org/2000/svg" width="751.695" height="475.826" viewBox="0 0 751.695 475.826"><defs><style>.a{fill:#f7df52;opacity:0.25;}.b{fill:#eb3d3f;}.c{fill:#e69d43;}.d{fill:#283250;}.e{fill:#a40707;}.f{fill:#d9935c;}.g{fill:#cb7d45;}.h{fill:#14a884;}.i{fill:#b64c41;}.j{fill:#9ed9f0;}.k{fill:#9e69ce;}.l{fill:#6b2ba7;}.m{fill:#008d6a;}.n{fill:#ffbc60;}.o{fill:#e78b0d;}.p{fill:#74acbe;}.q{fill:#e9f3fe;}.r{fill:#bed4f4;}.s{fill:#afcdfb;}</style></defs><g transform="translate(-1047.896 -445.139)"><path class="a" d="M1765.861,1010.5c57.7-81.842,31.7-153.613-71.029-148.271C1579.913,868.2,1594.086,614.5,1395.1,736.651c-43.209,26.524-139.374-29.178-177.793,86.874-9.136,27.6-77.746,29.518-122.088,51.649-69.555,34.714-49.912,182.852,15.8,183.435s548.457-1.161,548.457-1.161,74.538-1.773,106.389-46.95" transform="translate(-1.951 -138.421)"/><path class="a" d="M1184.238,445.139,1119.11,489.08l.627.929a3.851,3.851,0,0,0-3.84,3.84v22.4a3.851,3.851,0,0,0,3.84,3.84h32.643a3.852,3.852,0,0,0,3.841-3.84v-8.96h21.762V919.5h25.6V507.29H1308.9l29.36,31.577h-6.022a3.852,3.852,0,0,0-3.841,3.84v3.841a3.852,3.852,0,0,0,3.841,3.84h12.375a3.852,3.852,0,0,0,3.84-3.84v-3.841a3.852,3.852,0,0,0-3.84-3.84h-3.569v-32.6l-1.12-.1V493.209h0l.323-1.073-156.012-47" transform="translate(-36.453 0)"/><path class="a" d="M1191.36,450.423l151.434,45.618H1162.914a3.852,3.852,0,0,0-3.783-3.2H1128.49l62.87-42.418" transform="translate(-43.204 -2.833)"/><path class="a" d="M1553.758,579.1l11.6,1.026v27.845L1538.51,579.1Z" transform="translate(-263 -71.813)"/><path class="b" d="M1352.419,1432.3h-112.64c5.425-4,24.894-17.964,42.527-25.5,7.307-3.124,14.3-5.144,19.844-4.895C1319.739,1402.693,1344.393,1424.693,1352.419,1432.3Z" transform="translate(-102.862 -512.875)"/><path class="c" d="M1275.241,1432.3H1162.6c7.672-5.663,43.442-31.245,62.372-30.4,4.938.223,10.433,2.117,15.962,4.9C1255.095,1413.913,1269.467,1426.828,1275.241,1432.3Z" transform="translate(-61.489 -512.875)"/><path class="a" d="M2354.508,631.583,2247.491,663.82l.221.736h0v8.889l-.768.068v22.363H2244.5a2.642,2.642,0,0,0-2.634,2.635v2.634a2.642,2.642,0,0,0,2.634,2.634h8.489a2.642,2.642,0,0,0,2.635-2.634V698.51a2.643,2.643,0,0,0-2.635-2.635h-4.131l20.139-21.659h72.242V956.968H2358.8" transform="translate(-640.041 -99.946)"/><path class="a" d="M2383.6,666.5h-123.39l103.876-31.291" transform="translate(-649.879 -101.889)"/><path class="a" d="M2256.13,743.28v-19.1l7.953-.7h10.459Z" transform="translate(-647.69 -149.206)"/><path class="a" d="M1804.93,477.395V937.167h147.75V477.395" transform="translate(-405.818 -17.291)"/><g transform="translate(1399.112 523.543)"><rect class="a" width="106.942" height="67.357" transform="translate(0 0)"/><rect class="a" width="106.942" height="67.357" transform="translate(0 123.34)"/><rect class="a" width="106.942" height="67.357" transform="translate(0 245.088)"/></g><path class="a" d="M2035.439,477.395V937.426h40.808v-.259H2240.5" transform="translate(-529.386 -17.291)"/><path class="a" d="M2287.651,790.562H2123.4V477.395" transform="translate(-576.538 -17.291)"/><line class="d" x2="751.695" transform="translate(1047.896 919.487)"/><line class="d" x1="751.695" transform="translate(1047.896 920.965)"/><g transform="translate(1516.121 591.844)"><path class="e" d="M2189.232,1454.166s.294-6.364,2-9.778,15.362-1.067,15.362-1.067,3.146,5.694,2.721,10.814Z" transform="translate(-2127.949 -1126.511)"/><path class="e" d="M2110.247,1454.166s.294-6.364,2-9.778,15.362-1.067,15.362-1.067,3.146,5.694,2.72,10.814Z" transform="translate(-2085.608 -1126.511)"/><path class="f" d="M2169.685,869.1c-1.706,1.235-17.144,9.294-17.144,9.294l-16.28-11.608s4.945-.72,5.075-.759c1.469-.41,1.4-4.349,1.587-8.545.029-.646.065-1.3.112-1.946l15.942-.579.012.2c.013.2.03.413.045.634l.031.454c.01.157.023.314.035.477.288,3.686.9,8.894,2.081,9.5C2161.85,866.568,2166.388,866.514,2169.685,869.1Z" transform="translate(-2099.553 -811.533)"/><path class="g" d="M2166.8,856.721c-1.315,2.631-4.244,7.211-8.587,7.06-4.148-.148-6.509-3.917-7.591-6.3.029-.646.064-1.3.112-1.946l15.942-.579.012.2.046.634.031.454C2166.774,856.4,2166.787,856.558,2166.8,856.721Z" transform="translate(-2107.252 -811.533)"/><path class="h" d="M2146.776,775.72s7.69-7.656,16.761.156C2163.537,775.875,2158.143,774.756,2146.776,775.72Z" transform="translate(-2105.19 -767.256)"/><path class="e" d="M2135.723,805.661a65.92,65.92,0,0,1-3.937-10.913c-1.073-4.191-.09-20.1,15.9-19.019a21.558,21.558,0,0,1,9.168,2.7c3.609,2.063,8.943,6.7,4.431,20.856l-1.091,4.75Z" transform="translate(-2096.991 -769.033)"/><path class="f" d="M2161.82,824.489c-4.129,3.947-9.258,9.208-20.315-.521-2.163-1.9-2.015-4.829-2.142-9.032-.152-4.974-1.349-8.02-.793-10.888.661-3.43,3.594-4.98,9.683-5.511,11.179-.97,16.829,1.548,16.078,7.1C2162.655,818.014,2166.018,820.475,2161.82,824.489Z" transform="translate(-2100.713 -781.179)"/><path class="i" d="M2169.215,797.175s6.627-.14,8.14,2.076,1.723,4.695,2.486,5.943a4.816,4.816,0,0,1,.637,2.651l1.47-9.891-8.97-1.783Z" transform="translate(-2117.219 -780.019)"/><path class="j" d="M2164.266,896.384s-2.829,8.34-14.3,9.867c-.311.042-.63.076-.953.109h-46.725l-.25-.077c-1.815-.576-12.978-4.4-14.152-11.553,0,0,5.868-12.053,10.349-13.547a28.4,28.4,0,0,1,5.015-1.011c1.943-.25,3.988-.416,5.7-.525,2.362-.147,4.1-.186,4.1-.186a14.081,14.081,0,0,0,12.494,7.269c8.856-.106,10.907-7.159,10.907-7.159s2.486.07,5.789.429c1.821.2,3.888.477,5.927.883,3.454.689,6.818,1.725,8.741,3.287C2162.025,888.328,2164.266,896.384,2164.266,896.384Z" transform="translate(-2073.621 -824.667)"/><path class="h" d="M2156.006,961.1c-.5-2.763-1.237-6.967-1.818-10.666,0-.049,1.732-20.878,2.372-24.395s-3.71-22.674-3.71-22.674c-1.01-2.932-2.726-3.828-4.042-3.828l2.211-18.443c-2.038-.406-4.105-.688-5.926-.883l-1.059,19.327-.017.279c-2.422.134-5.443.3-8.256.422s-5.419.221-7.022.221c-3.261,0-10.744-.375-15.713-.647l-.02-.276-1.2-19.679c-1.715.109-3.76.275-5.7.525l2.112,19.154v0c-1.392,0-2.992,2.471-3.213,3.843l-.215,5.993c-1.052,3.017-3.232,9.719-3.593,14.422-.478,6.219,2.119,27.853,2.137,28-.095,2.579-.277,5.875-.63,9.064-1.952,5.29-10.28,29.891-9.431,62.97.79,30.881,1.257,83.645,4.9,109.264a69.9,69.9,0,0,0,2.038,10.119,3.414,3.414,0,0,0,2.8,2.372c4.172.579,13.578,1.645,17.625.173,1.94-.708,3.329-11.477,4.311-25.36.941-13.311,1.508-29.485,1.821-42.4a.013.013,0,0,0,0-.006c.253-10.292.349-18.508.349-21.548,0-6.881,1.626-27.069,2.164-38.942a.264.264,0,0,1,.528-.006v0c.815,14.1,3.664,35.476,3.709,40.226.105,11.521-.564,85.543,4.471,88.029,3.85,1.9,12.923.464,17.257-.122a3.993,3.993,0,0,0,3.3-2.849c5.416-18.624,5.895-83.341,6.808-118.956C2166.187,991.222,2158.107,966.849,2156.006,961.1Z" transform="translate(-2076.476 -824.882)"/><path class="f" d="M2094.234,994.32c-1.6,1.28-6.827.746-8.853-.96s-6.081-1.174-7.041-1.815c-.067-.045-18.936-22.405-20.981-31.814-2.064-9.5,11-35.626,14.693-42.75,2.736,5.78,11.851,8.9,13.477,9.416l.25.076h.506c-3.075,8.315-12.27,23.283-15.813,28.922a4.893,4.893,0,0,0-.294,4.659c4.551,9.758,9,17.99,10.952,23.693.388.634,1.219,1.766,2.224,1.613,1.389-.215,5.87-1.175,8.11,2.131S2095.834,993.04,2094.234,994.32Z" transform="translate(-2057.14 -844.78)"/><g transform="translate(30.37)"><path class="k" d="M2158.048,770.045a23.541,23.541,0,0,0-3.432-3.542c-.349-.3-.724-.605-1.123-.907-4.051-3.082-10.535-6.091-18.352-2.831a17.441,17.441,0,0,0-5.341,3.471q-.52.492-.984,1.012c-6.777,7.519-6.2,19.311-6.2,19.311l39.106-.418C2161.845,775.225,2158.048,770.045,2158.048,770.045Z" transform="translate(-2122.601 -761.356)"/><path class="l" d="M2150.748,791.572c-.109-1.645-.858-15.138,3.883-19.752a7.86,7.86,0,0,0-.664-.554c-5.055,5.305-5.38,18.593-5.36,20.329l-12.5.134c-.37-9.578-5.656-19.114-6.291-20.179a8.858,8.858,0,0,0-.721.74,57.032,57.032,0,0,1,4.7,19.464l-11.164.119s10.415,2.692,18.26,2.595,20.846-3.013,20.846-3.013Z" transform="translate(-2122.615 -766.669)"/></g><path class="e" d="M2110.045,882.182c-4,7.681-15.362,9.121-15.362,9.121,3.681-8.961-3.734-11.787-8.321-20.963s3.52-15.256,3.52-15.256c-5.015.96-5.975,7.681-5.975,7.681-.427-4.481,3.309-12.052,15.15-13.547,8.67-1.094,10.762-4.017,11.262-5.5a6.489,6.489,0,0,0,1.959,4.579c.915.806,1.792,1.507,2.628,2.119-.019.349-.036.7-.052,1.043-.051,1.181-.083,2.343-.138,3.408a5.777,5.777,0,0,0-1.242,5.047,5.591,5.591,0,0,0,.41,1.255,10.576,10.576,0,0,1,2.054,5.117C2116.49,871.359,2113.044,876.425,2110.045,882.182Z" transform="translate(-2071.472 -805.505)"/><path class="m" d="M2166.9,1042.149l-1.729-10.161a79.215,79.215,0,0,1-23.393,4.856,5.656,5.656,0,0,0-4.166-2.907l-6.206-.9a5.654,5.654,0,0,0-5.831,3,61.542,61.542,0,0,1-11.258-2.74l0,.054-.618,8.923v.022c3.583.953,7.022,1.694,10.308,2.259l-.183,1.241a5.656,5.656,0,0,0,4.757,6.42l6.878,1.031a5.655,5.655,0,0,0,6.484-5.241l.12-1.914C2155.169,1046.032,2163.88,1043.275,2166.9,1042.149Z" transform="translate(-2087.457 -906.432)"/><path class="f" d="M2239.318,960.341c-2.045,9.409-20.915,31.77-20.981,31.814a2.056,2.056,0,0,1-.74.244l-.035.006c-1.559.269-4.6.157-6.266,1.565-2.026,1.706-7.255,2.24-8.855.96s.534-3.52,2.775-6.83,6.72-2.346,8.106-2.131c.826.124,1.539-.618,1.978-1.239l.026-.035c.083-.122.16-.237.221-.339,1.907-5.579,6.2-13.567,10.647-23.042a6.17,6.17,0,0,0-.352-5.893c-2.966-4.739-8.989-14.587-12.865-22.488-.451-2.285-.9-4.433-1.251-6.058,8.513-1.37,12.036-6.547,13.175-8.756C2228.924,925.924,2241.334,951.066,2239.318,960.341Z" transform="translate(-2134.732 -845.391)"/></g><path class="n" d="M2457.825,987.213c-6.064-21.087-14.6-55.933-14.6-55.933s17.137,3.5,20.763,6.484" transform="translate(-747.984 -260.602)"/><path class="n" d="M2415.9,955.824c-2.205-12.126-19.74-24.544-20.085-24.544l0,.253c0,1.853-2.922,5.274-7.422,5.568-5.338.349-11.927-2.7-11.927-5.771-.032,0-3,.4-4,.514-4.28.487-12.817,2.8-16.476,5.562-3.478,2.628,1.437,19.2,4.48,30.928,1.291,4.964,2.241,9.061,2.084,10.875-.076.886-.873,12.93-1.584,23.824-.589,8.987-1.12,17.189-1.137,17.7-.038,1.021,5.038,4.6,13.56,7.3a66.465,66.465,0,0,0,6.759,1.754,71.818,71.818,0,0,0,14.7,1.459c1.76-.006,3.429-.1,5-.252,12.174-1.194,16.344-15.068,16.274-72.748" transform="translate(-700.578 -260.602)"/><path class="f" d="M2401.478,913.651a103.359,103.359,0,0,1,.611-15.085l18.8,3.072s.02,5.739-.061,12.105c.01,0,.51,5.9-6.763,6.768S2401.282,918.207,2401.478,913.651Z" transform="translate(-725.585 -243.065)"/><path class="e" d="M2466.121,1448.162l-32.3.013c-2.363-1.454-.974-12.235-.974-12.235s11.072-8.789,12.563-2.022,10.45,9.836,15.552,10.683" transform="translate(-742.206 -528.675)"/><path class="o" d="M2382.114,1020.464c0,18.028-8.737,13.17-14.011,8.3.71-10.894,1.209-49.481,1.209-49.481S2382.114,994.647,2382.114,1020.464Z" transform="translate(-707.714 -286.336)"/><path class="e" d="M2360.7,1448.175c-2.364-1.454-.975-12.235-.975-12.235s11.071-8.789,12.563-2.022,10.45,9.836,15.551,10.683c3.522.585,4.8,2.406,5.136,3.562Z" transform="translate(-703.008 -528.675)"/><path class="i" d="M2393.889,861.371s-12.549-19.786,11.548-21.1c0,0,9.038,1.064,11.084-.982,0,0,7.011,10.655.463,22.078S2393.889,861.371,2393.889,861.371Z" transform="translate(-719.786 -211.291)"/><path class="f" d="M2418.3,881.722c-1.826,1.437-7.182,2.864-8.73,3.031,0,0-7.942-1.771-9.386-2.642-2.236-1.356-2.092-4.1-2.207-7.913-.137-4.515-.593-8.059-.089-10.662.6-3.114,2.574-4.885,8.1-5.366,10.145-.881,14.372,1.659,14.548,5.06.046.914.089,1.784.118,2.609C2421.063,876.448,2420.226,880.209,2418.3,881.722Z" transform="translate(-723.559 -221.317)"/><path class="i" d="M2420.843,882.4c-.1,6.145-1.755,9.782-2.956,10.242a25.413,25.413,0,0,1-4.706,1.257c-.571.067-1.119.048-1.112-.276.019-.969,1.313-2.164.351-3.023-1.009-.9-6.427-1.2-6.864.761-.213.958,1.534,2.649.337,2.688-.364-.062-.72-.132-1.06-.221a15.8,15.8,0,0,1-4.174-1.841c-2.236-1.356-2.09-3.434-2.584-7.217-.321-2.448-.321-1.121,0,2.51.335,3.8-.321,6.24,2.206,7.913,1.406.93,9.5,4.568,9.5,4.568-.118-1.926,6.786-3.521,8.612-4.958C2420.093,893.472,2420.944,890.388,2420.843,882.4Z" transform="translate(-723.652 -234.399)"/><path class="h" d="M2419.445,984.182h-35.273a6.113,6.113,0,0,0-6.109,6.2,98.342,98.342,0,0,1-1.058,16.406c-1.3,8.009-4.091,15.491-9.844,17.292a.021.021,0,0,0-.014.012c-.026.058-.184.409-.436.992a.034.034,0,0,0,0,.009q-.081,2.173-.182,4.425c-.012.3-.025.6-.042.908-.006.179-.016.355-.026.535-.012.3-.029.611-.045.918-.022.506-.048,1.015-.077,1.53q-.033.6-.067,1.213-.063,1.172-.141,2.368c-.012.256-.028.509-.048.768-.067,1.031-.137,2.078-.217,3.13-.022.324-.048.647-.074.973-.01.157-.022.314-.036.47-.032.413-.064.825-.1,1.242q-.053.658-.111,1.325c-.141,1.619.067,3.063.025,4.2-.039,1.021,5.037,4.6,13.56,7.3.685.219,1.4.429,2.127.632a.025.025,0,0,1,.018.021c.8,9.328,2.947,22.506,4.889,35.222v0c.5,3.3.989,6.561,1.437,9.719a193.554,193.554,0,0,1,2.166,21.458v.057c.042,2.516-2.081,8.792-2.24,10.241-.1.887-.179,1.824-.237,2.807a113.978,113.978,0,0,0,.179,13.521c1.392,21.622,7.105,49.286,9.143,50.463,4.052,2.343,11.425,0,15.173-.55" transform="translate(-706.316 -288.961)"/><path class="m" d="M2448.523,1155.141c-1.869-12.18-12.417-12.833-21.984,12.363,1.184,8.359-14,64.875-13.684,69.828,1.392,21.622,7.1,49.286,9.142,50.463,4.052,2.343,11.425,0,15.173-.55" transform="translate(-731.702 -376.217)"/><path class="h" d="M2357.565,1188.741c-.29,2.5-3.216,8.443-3.567,9.859-4.836,19.449-2.164,65.563.234,67.407,3.709,2.854,11.328,1.5,15.114,1.447a3.1,3.1,0,0,0,3.1-2.732c2.973-36.742,15.3-87.208,23.219-116.9a139.339,139.339,0,0,0,4.554-25.948s-37.034-22.69-41.039-10.295C2355.636,1122.551,2359.8,1169.549,2357.565,1188.741Z" transform="translate(-698.707 -355.27)"/><g transform="translate(1669.396 618.583)"><path class="k" d="M2414.7,823.859c-.255-.287-.526-.565-.812-.836a14.4,14.4,0,0,0-4.412-2.867c-6.457-2.694-11.813-.208-15.159,2.338-.33.249-.64.5-.928.749a19.47,19.47,0,0,0-2.835,2.926s-3.136,4.278-3.032,13.3l32.3.346S2420.3,830.07,2414.7,823.859Z" transform="translate(-2387.518 -818.992)"/><g transform="translate(0.002 3.798)"><path class="l" d="M2403.368,843.947l1.774.02c.037-.514-.05-12.238-4.423-16.79a6.5,6.5,0,0,0-.55.454C2404.322,831.639,2403.376,843.826,2403.368,843.947Z" transform="translate(-2394.302 -827.177)"/><path class="l" d="M2410.625,844.371a49.681,49.681,0,0,1,3.86-16.061,7.094,7.094,0,0,0-.6-.628c-.514.887-4.728,8.7-5.173,16.669l-21.194-.227s10.74,2.409,17.219,2.489,15.083-2.143,15.083-2.143Z" transform="translate(-2387.523 -827.448)"/></g></g><path class="h" d="M2385.963,932.863s10.915,12.716,11.555,23.81l-5.561.3a53.452,53.452,0,0,0-9.615-23.344s1.285-.311,1.712-.4C2384.627,933.114,2385.963,932.863,2385.963,932.863Z" transform="translate(-715.348 -261.451)"/><path class="h" d="M2463.071,956.615c-.461-8.721-5.94-18.313-8.965-22.859,0,0-3.884-.981-5.305-1.269a55.6,55.6,0,0,1,8.658,24.224" transform="translate(-750.973 -261.249)"/><g transform="translate(1630.914 787.361)"><path class="e" d="M2369.125,1188.685h-4.507c-2.094-.951-13.38-5.839-24.227-5.9-7.827-.043-16.745,5.8-17.282,5.868-1.36.159,4.534.213,4.534.213s8.833-3.908,12.8-4c3.783-.088,12.182,2.662,15.536,3.819h-25.259a3.852,3.852,0,0,0-3.841,3.84v28.8a3.852,3.852,0,0,0,3.841,3.841h38.4a3.852,3.852,0,0,0,3.841-3.841v-28.8A3.851,3.851,0,0,0,2369.125,1188.685Z" transform="translate(-2314.399 -1182.786)"/><path class="b" d="M8.277,0h29.53a8.278,8.278,0,0,1,8.278,8.278V28.207a8.277,8.277,0,0,1-8.277,8.277H8.278A8.278,8.278,0,0,1,0,28.206V8.277A8.277,8.277,0,0,1,8.277,0Z" transform="translate(0 5.899)"/></g><path class="n" d="M2355.215,1002c.276,13.019-1.347,38.946-1.347,38.946h-7.681c-3.626-18.242-4.906-29.978-4.906-36.378q0-1.891.016-3.52c.048-5.467.2-8.641.2-8.641-1.44-33.121,5.176-50.831,7.252-53.27s11.586-4.631,11.586-4.631a130.676,130.676,0,0,1,4.42,16.511c1.28,7.361-10.068,38.289-9.6,48.86C2355.177,1000.531,2355.2,1001.242,2355.215,1002Z" transform="translate(-693.336 -262.329)"/><path class="f" d="M2353.868,1117.254s1.622-25.926,1.347-38.946a27.214,27.214,0,0,0-13.918-.953q-.014,1.627-.016,3.52c0,6.4,1.281,18.136,4.906,36.378-1.6,6.72-1.493,13.975,1.281,15.255s11.948-3.52,11.841-5.654S2353.868,1117.254,2353.868,1117.254Z" transform="translate(-693.336 -338.64)"/><g transform="translate(1071.328 617.731)"><g transform="translate(0 157.819)"><g transform="translate(0 6.403)"><path class="e" d="M8.278,0H37.808a8.277,8.277,0,0,1,8.277,8.277V28.206a8.278,8.278,0,0,1-8.278,8.278H8.277A8.277,8.277,0,0,1,0,28.207V8.278A8.278,8.278,0,0,1,8.278,0Z"/><path class="b" d="M8.278,0h29.53a8.277,8.277,0,0,1,8.277,8.277V28.206a8.278,8.278,0,0,1-8.278,8.278H8.278A8.278,8.278,0,0,1,0,28.206V8.278A8.278,8.278,0,0,1,8.278,0Z" transform="translate(12.481)"/></g><path class="e" d="M1115.648,1163.892s9.121-6.721,10.481-6.561,3.521.64,3.521.64l-8.161,6.16Z" transform="translate(-1107.647 -1157.329)"/></g><path class="j" d="M1198.237,935.854c-3.658-2.765-12.2-5.075-16.475-5.562-1-.112-4.01-.125-4.042-.125,0,3.075-6.551,5.731-11.889,5.383-4.5-.3-7.422-3.716-7.422-5.569l0-.006c-.346,0-17.881,12.171-20.086,24.3a13.5,13.5,0,0,0-.227,2.423c-.07,57.68-3.565,66.526-2.461,66.507,0,0,6.561,5.047,18.735,6.241,1.574.157,3.241.246,5,.252a71.833,71.833,0,0,0,14.705-1.459,66.568,66.568,0,0,0,6.759-1.754c8.523-2.7,13.6-6.275,13.56-7.3-.041-1.136.167-2.579.026-4.2-.531-6.106-.822-11.441-1.047-16.814a62.783,62.783,0,0,0,14.584-.1C1215.532,981.769,1203.185,939.592,1198.237,935.854Zm-2.16,46.95c-.563.15-1.174.294-1.827.431-.451.1-.922.193-1.409.282-.01-.221-.015-.444-.025-.662-.125-3.022-.266-5.9-.464-8.635-.167-2.292-.372-4.484-.64-6.576C1194.9,976.057,1197.127,982.521,1196.077,982.8Z" transform="translate(-1118.244 -877.634)"/><path class="f" d="M1150.932,929.985s-13.547,2.052-19.381,6.913-6.422,35.811-8.367,44.56a68.566,68.566,0,0,0-1.022,7.87,170.891,170.891,0,0,0,1.241,34.427,13.077,13.077,0,0,1-.8,5.745c-1.493,3.734-1.813,4.8.854,6.935s5.547,5.12,7.574,4.267c1.563-.659,1.285-11.028,1.077-15.735,2.34-10.059,6.13-28.939,9.7-47.235C1146.57,953.338,1150.932,929.985,1150.932,929.985Z" transform="translate(-1110.768 -877.639)"/><path class="j" d="M1151.736,929.988s-2.516,13.458-5.809,30.612c-1.043,5.443-2.166,11.258-3.312,17.134-4.663,9.138-8.663,15.349-9.9,14.181-2.522-2.381-6.948-2.676-9.748-2.586a68.547,68.547,0,0,1,1.021-7.87c.154-.691.3-1.52.438-2.464,1.632-11.009,2.557-37.62,7.927-42.094,2.826-2.353,7.46-4.049,11.49-5.175h0c2.057-.573,3.958-1,5.38-1.283C1150.762,930.136,1151.736,929.988,1151.736,929.988Z" transform="translate(-1111.571 -877.641)"/><path class="p" d="M1132.715,1009.555c-2.521-2.381-6.947-2.675-9.749-2.586a68.458,68.458,0,0,1,1.022-7.87c.154-.692.3-1.521.438-2.465l13.978-33.741S1133.951,1010.723,1132.715,1009.555Z" transform="translate(-1111.57 -895.28)"/><path class="f" d="M1204.247,911.815a103.119,103.119,0,0,0-.612-15.084l-18.8,3.073s0,5.736.083,12.1l-.019,0s-.513,5.905,6.761,6.769S1204.443,916.371,1204.247,911.815Z" transform="translate(-1144.736 -859.813)"/><path class="e" d="M1155.7,1448.061c2.363-1.456.98-12.311.98-12.311s-11.071-8.788-12.563-2.022-10.449,9.836-15.551,10.683c-3.522.585-4.606,2.54-4.939,3.7Z" transform="translate(-1111.926 -1146.305)"/><path class="p" d="M1248.658,1026.776s-3.521,4.759-4.241,4.759-9.6-3.44-7.053-11.134,8.753-9.232,8.753-9.232c.268,2.092.473,4.285.64,6.576.2,2.736.339,5.613.464,8.635.009.218.016.441.025.662.487-.089.958-.182,1.409-.281Z" transform="translate(-1172.649 -921.159)"/><path class="e" d="M1228.825,1448.061c2.363-1.456.98-12.311.98-12.311s-11.071-8.788-12.563-2.022-10.448,9.836-15.551,10.683c-3.522.585-4.605,2.54-4.939,3.7Z" transform="translate(-1151.124 -1146.305)"/><path class="i" d="M1200.619,859.536s12.55-19.786-11.547-21.1c0,0-9.038,1.064-11.084-.982,0,0-7.011,10.655-.464,22.078S1200.619,859.536,1200.619,859.536Z" transform="translate(-1139.318 -828.039)"/><path class="f" d="M1183.2,879.886c1.827,1.437,7.183,2.864,8.731,3.031,0,0,7.942-1.771,9.386-2.642,2.236-1.355,2.092-4.1,2.207-7.913.137-4.515.592-8.06.088-10.662-.6-3.113-2.573-4.884-8.1-5.365-10.145-.881-14.371,1.659-14.548,5.061-.046.913-.088,1.784-.118,2.609C1180.444,874.612,1181.283,878.373,1183.2,879.886Z" transform="translate(-1142.546 -838.064)"/><path class="i" d="M1180.759,880.565c.1,6.145,1.755,9.782,2.956,10.242a25.392,25.392,0,0,0,4.706,1.257c.572.067,1.119.048,1.113-.276-.019-.97-1.314-2.164-.351-3.023,1.009-.9,6.427-1.2,6.864.761.213.958-1.535,2.649-.337,2.688.363-.062.72-.132,1.06-.221a15.813,15.813,0,0,0,4.174-1.841c2.236-1.355,2.089-3.434,2.584-7.217.321-2.448.321-1.121,0,2.511-.335,3.8.321,6.24-2.206,7.912-1.406.931-9.5,4.568-9.5,4.568.117-1.926-6.787-3.521-8.614-4.958C1181.508,891.636,1180.657,888.552,1180.759,880.565Z" transform="translate(-1142.546 -851.147)"/><path class="h" d="M1195.648,1047.259c.039,1.021-5.037,4.6-13.56,7.3-.686.219-1.4.429-2.127.633a.022.022,0,0,0-.017.021c-.8,9.328-2.948,22.506-4.889,35.223v0c-.5,3.3-.989,6.561-1.437,9.719a193.361,193.361,0,0,0-2.167,21.458v.058c-.041,2.515,2.08,8.792,2.24,10.241.1.887.18,1.824.236,2.807a113.925,113.925,0,0,1-.179,13.521c-1.392,21.622-7.1,49.286-9.144,50.463-4.052,2.343-11.425,0-15.173-.55a3.1,3.1,0,0,1-2.714-3.117c1.831-35.883-3.427-85.856-7.357-116.576q-.154-1.2-.3-2.355c-.471-3.623-.781-7.006-.977-10.056-.179-2.676-.265-5.1-.3-7.21-.01-.656-.016-1.283-.02-1.875-.01-1.924,1.52-14.514,1.59-72.194h0a2.433,2.433,0,0,1,2.426-2.423h35.273a6.113,6.113,0,0,1,6.108,6.2,98.3,98.3,0,0,0,1.06,16.406c1.3,8.009,4.089,15.491,9.843,17.292a.022.022,0,0,1,.014.012c.026.058.183.409.436.992a.022.022,0,0,1,0,.009q.081,2.173.182,4.425c.013.3.026.6.041.909.007.178.017.355.026.534.012.3.029.611.045.919.022.506.048,1.015.077,1.529.023.4.044.807.067,1.213.042.781.09,1.571.141,2.368.013.256.029.509.048.768.068,1.031.138,2.077.218,3.13.022.324.048.647.074.973.009.157.022.314.035.47.032.413.063.825.1,1.242q.053.658.112,1.325C1195.814,1044.68,1195.607,1046.123,1195.648,1047.259Z" transform="translate(-1119.499 -905.708)"/><path class="m" d="M1174.121,1235.5c-1.392,21.622-7.1,49.286-9.144,50.463-4.052,2.343-11.425,0-15.173-.55a3.1,3.1,0,0,1-2.714-3.117c1.831-35.883-3.427-85.856-7.358-116.576q-.154-1.2-.3-2.355c-.471-3.623-.781-7.006-.977-10.056,1.869-12.181,12.418-12.833,21.984,12.363C1164.536,1175.429,1174.438,1230.542,1174.121,1235.5Z" transform="translate(-1119.872 -992.965)"/><path class="h" d="M1214.107,1186.9c.29,2.5,3.215,8.443,3.565,9.859,4.837,19.449,2.165,65.563-.233,67.407-3.709,2.854-11.328,1.5-15.114,1.447a3.1,3.1,0,0,1-3.1-2.732c-2.973-36.742-15.3-87.208-23.218-116.9a139.305,139.305,0,0,1-4.555-25.948s37.034-22.69,41.039-10.3C1216.036,1120.715,1211.873,1167.713,1214.107,1186.9Z" transform="translate(-1137.562 -972.017)"/><g transform="translate(33.691 0)"><path class="k" d="M1200.3,824.333a19.455,19.455,0,0,0-2.835-2.926c-.288-.249-.6-.5-.928-.749-3.346-2.546-8.7-5.032-15.158-2.338a14.387,14.387,0,0,0-4.413,2.867q-.428.406-.812.836c-5.6,6.211-5.125,15.952-5.125,15.952l32.3-.345C1203.44,828.612,1200.3,824.333,1200.3,824.333Z" transform="translate(-1171.023 -817.156)"/><g transform="translate(0.01 3.798)"><path class="l" d="M1219.078,842.112c-.009-.121-.955-12.308,3.2-16.316a6.364,6.364,0,0,0-.549-.454c-4.373,4.551-4.46,16.276-4.423,16.79Z" transform="translate(-1195.84 -825.342)"/><path class="l" d="M1182.177,842.515c-.306-7.911-4.673-15.789-5.2-16.668a7.19,7.19,0,0,0-.6.611,47.143,47.143,0,0,1,3.881,16.077l-9.222.1s8.6,2.224,15.084,2.144,17.219-2.489,17.219-2.489Z" transform="translate(-1171.044 -825.613)"/></g></g><path class="h" d="M1224.7,931.028s-10.915,12.715-11.554,23.81h5.547a53.124,53.124,0,0,1,9.628-23.049Z" transform="translate(-1159.911 -878.199)"/><path class="h" d="M1163.053,930.969a55.742,55.742,0,0,0-8.747,23.836h-5.546c.461-8.721,5.885-18.008,8.91-22.553h0C1159.731,931.679,1161.631,931.257,1163.053,930.969Z" transform="translate(-1125.397 -878.167)"/><path class="e" d="M1234.476,995.028a115.956,115.956,0,0,0-1.889-15.229,48.418,48.418,0,0,1-.613,8.067c1.373,10.938.842,19.3-1.6,24.033a16.306,16.306,0,0,1-6.132,6.695,19.373,19.373,0,0,0,3.39-4.475c1.874-3.358,3.6-9.607,2.958-21.135-.128.328-.263.645-.407.953,0,0-.475.082-1.389.176.375,8.428-.525,14.883-2.677,18.744a15.937,15.937,0,0,1-6.487,6.5,19.015,19.015,0,0,0,2.308-2.786c2.223-3.267,4.542-9.689,4.642-22.293q-.831.049-1.844.076c-.1,9.663-1.528,16.853-4.211,20.783-.123.182-.252.363-.384.54,2.036-3.493,3.982-9.824,4.082-21.314-.577.009-1.193.015-1.848.009-.1,9.654-1.528,16.839-4.208,20.765a15.211,15.211,0,0,1-6.205,5.375c-.739-.126-1.5-.294-2.255-.5-.1-.024-.205-.05-.3-.082l-.033-.009c-.1-.027-.2-.056-.3-.085q-1.39-.405-2.7-.924c-10.671-4.238-16.794-13.78-17.39-21.625-.422-5.571.03-13.868,1.155-22.891,2.218-17.783,7.047-38.4,12.921-46.592.1-.138.194-.273.294-.4a0,0,0,0,1,0,0c.123-.162.246-.32.373-.467.217-.261.431-.5.651-.727l.005-.006a7.226,7.226,0,0,1,1.37-1.12,3.5,3.5,0,0,1,.4.281,7.8,7.8,0,0,1,1.361,1.4c0,.005.009.008.012.015.613.132,1.248.284,1.9.449.3.082.612.161.924.252a.206.206,0,0,1,.059.015c.073.015.147.038.217.058.381.105.763.218,1.147.332l.654.2c.258.083.513.165.768.249.279.095.557.188.833.285.293.1.587.208.873.316l-.017-.026c-3.457-5.449-5.915-6.719-7.51-6.642a4.372,4.372,0,0,0-.747.1,3.13,3.13,0,0,0-.8-.108,4.786,4.786,0,0,0-1.607.3c-1.642.159-3.37,1.2-5.159,3.106-.123.126-.243.261-.366.4a31.694,31.694,0,0,0-2.979,4.047l-.018.026c-9.457,14.948-18.275,48.152-18.8,63.694-.414,12.3,9.056,23.3,18.625,27.8a28.818,28.818,0,0,0,2.783,1.141c.519.182,1.032.343,1.543.487l.032.009a21.282,21.282,0,0,0,5.757.833c.4,0,.786-.012,1.173-.038.4.026.794.038,1.187.038a16.961,16.961,0,0,0,4.988-.727c.25-.011.5-.029.745-.047.212-.02.422-.038.627-.064.405-.047.806-.109,1.2-.182a19.962,19.962,0,0,0,3.378-.261,17.047,17.047,0,0,0,8.983-4.364,19.381,19.381,0,0,0,4.012-5.366C1233.531,1009.983,1234.945,1004.523,1234.476,995.028Zm-55.735-1.1c.463-13.756,7.985-42.973,16.3-58.747-.29.7-.584,1.419-.871,2.161-7.859,16.645-14.46,43.116-14.909,56.495a26.748,26.748,0,0,0,4.647,15.483C1180.318,1004.276,1178.579,998.637,1178.74,993.924Zm19.8,25.618c-11.835-5.571-17.736-17.1-17.445-25.618.252-7.557,2.639-19.786,6.117-31.885-2.713,13.079-4.226,26.346-3.853,34.5.469,10.32,7.8,18.9,15.989,23.369C1199.08,1019.792,1198.816,1019.672,1198.543,1019.543Zm-13.352-23.131c-.54-11.8,3.191-35.56,8.707-52.6.619-1.906,1.258-3.73,1.918-5.446.246-.522.493-1.029.738-1.531-4.246,11.63-7.437,28.252-8.82,42.21a113.815,113.815,0,0,0-.578,18.461c.645,8.516,5.953,15.63,12.474,20.155C1190.538,1012.631,1185.523,1003.687,1185.192,996.412Z" transform="translate(-1140.476 -873.501)"/><path class="f" d="M1211.408,1043.5c-.3.045-5.972,1.08-6.282,1.125-9.446,1.385-22.155,1.995-23.479,2.056-.124-.115-4.632-4.315-6.39-4.315-1.783,0-6.92,1.872-7.445,3.313s-.734,4.032.734,4.608a65.994,65.994,0,0,0,9.123,2.161,4.231,4.231,0,0,0,.755-.006,159.4,159.4,0,0,0,28.516,5.722,68.037,68.037,0,0,0,7.967.537A41.67,41.67,0,0,0,1211.408,1043.5Z" transform="translate(-1135.399 -937.88)"/></g><path class="a" d="M1632.479,732.848v-2.482h-5.431V713.987h-4.495v16.378h-11.387V713.987h-4.495v16.378h-12.38V713.987h-4.5v16.378h-11.387V713.987h-4.495v16.378h-5.955v2.482h5.955v7.973h-5.955V743.3h5.955v7.974h-5.955v2.482h5.955v7.974h-5.955v2.482h5.955v7.974h-5.955v2.481h5.955v7.974h-5.955v2.482h5.955v6.452h-5.955v2.482h5.955v7.974h-5.955v2.481h5.955v7.975h-5.955v2.481h5.955v7.974h-5.955v2.482h5.955V833.4h-5.955v2.482h5.955v7.974h-5.955v2.482h5.955v7.61h-5.955v2.482h5.955V864.4h-5.955v2.482h5.955v7.974h-5.955v2.482h5.955v7.973h-5.955V887.8h5.955v7.974h-5.955v2.481h5.955v7.975h-5.955v2.481h5.955v6.452h-5.955v2.482h5.955v7.975h-5.955V928.1h5.955v7.974h-5.955v2.482h5.955v7.974h-5.955v2.482h5.955v7.974h-5.955v2.482h5.955v7.974h-5.955v2.482h5.955v7.114h-5.955v2.481h5.955v7.974h-5.955v2.482h5.955v7.974h-5.955v2.482h5.955v7.974h-5.955v2.482h5.955v7.974h-5.955v2.482h5.955v7.974h-5.955v2.482h5.955v6.452h-5.955v2.482h5.955v7.973h-5.955v2.482h5.955v7.974h-5.955v2.481h64.52v-2.481h-5.431v-7.974h5.431V1048.7h-5.431v-7.973h5.431v-2.482h-5.431v-6.452h5.431v-2.482h-5.431v-7.974h5.431v-2.482h-5.431v-7.974h5.431V1008.4h-5.431v-7.974h5.431v-2.482h-5.431v-7.974h5.431v-2.482h-5.431v-7.974h5.431v-2.481h-5.431v-7.114h5.431v-2.482h-5.431v-7.974h5.431v-2.482h-5.431v-7.974h5.431v-2.482h-5.431v-7.974h5.431V936.07h-5.431V928.1h5.431v-2.481h-5.431V917.64h5.431v-2.482h-5.431v-6.452h5.431v-2.481h-5.431v-7.975h5.431V895.77h-5.431V887.8h5.431v-2.482h-5.431V877.34h5.431v-2.482h-5.431v-7.974h5.431V864.4h-5.431v-7.974h5.431v-2.482h-5.431v-7.61h5.431v-2.482h-5.431v-7.974h5.431V833.4h-5.431v-7.974h5.431v-2.482h-5.431V814.97h5.431v-2.481h-5.431v-7.975h5.431v-2.481h-5.431v-7.974h5.431v-2.482h-5.431v-6.452h5.431v-2.482h-5.431V774.67h5.431v-2.481h-5.431v-7.974h5.431v-2.482h-5.431v-7.974h5.431v-2.482h-5.431V743.3h5.431v-2.482h-5.431v-7.973Zm-25.808,0v7.973h-12.38v-7.973Zm-12.38,315.851v-7.973h12.38v7.973Zm12.38,2.482v7.974h-12.38v-7.974Zm-12.38-12.937v-6.452h12.38v6.452Zm0-8.934v-7.974h12.38v7.974Zm0-10.456v-7.974h12.38v7.974Zm0-10.455v-7.974h12.38v7.974Zm0-10.456v-7.974h12.38v7.974Zm0-10.456v-7.974h12.38v7.974Zm0-10.455v-7.114h12.38v7.114Zm0-9.6v-7.974h12.38v7.974Zm0-10.456v-7.974h12.38v7.974Zm0-10.456v-7.974h12.38v7.974Zm0-10.455V928.1h12.38v7.974Zm0-10.455V917.64h12.38v7.975Zm0-10.456v-6.452h12.38v6.452Zm0-8.933v-7.975h12.38v7.975Zm0-10.456V887.8h12.38v7.974Zm0-10.456V877.34h12.38v7.973Zm0-10.455v-7.974h12.38v7.974Zm0-10.456v-7.974h12.38V864.4Zm0-10.455v-7.61h12.38v7.61Zm0-10.092v-7.974h12.38v7.974Zm0-10.456v-7.974h12.38V833.4Zm0-10.456V814.97h12.38v7.974Zm0-10.455v-7.975h12.38v7.975Zm0-10.456v-7.974h12.38v7.974Zm0-10.456v-6.452h12.38v6.452Zm0-8.934V774.67h12.38v7.974Zm0-10.455v-7.974h12.38v7.974Zm0-10.456v-7.974h12.38v7.974Zm0-10.456V743.3h12.38v7.974Zm-15.882-18.429H1589.8v7.973h-11.387Zm0,10.455H1589.8v7.974h-11.387Zm0,10.456H1589.8v7.974h-11.387Zm0,10.456H1589.8v7.974h-11.387Zm0,10.455H1589.8v7.974h-11.387Zm0,10.456H1589.8v6.452h-11.387Zm0,8.934H1589.8v7.974h-11.387Zm0,10.455H1589.8v7.975h-11.387Zm0,10.456H1589.8v7.974h-11.387Zm0,10.456H1589.8V833.4h-11.387Zm0,10.456H1589.8v7.974h-11.387Zm0,10.456H1589.8v7.61h-11.387Zm0,10.092H1589.8V864.4h-11.387Zm0,10.456H1589.8v7.974h-11.387Zm0,10.456H1589.8v7.973h-11.387Zm0,10.455H1589.8v7.974h-11.387Zm0,10.455H1589.8v7.975h-11.387Zm0,10.456H1589.8v6.452h-11.387Zm0,8.934H1589.8v7.975h-11.387Zm0,10.456H1589.8v7.974h-11.387Zm0,10.456H1589.8v7.974h-11.387Zm0,10.456H1589.8v7.974h-11.387Zm0,10.456H1589.8v7.974h-11.387Zm0,10.456H1589.8v7.114h-11.387Zm0,9.595H1589.8v7.974h-11.387Zm0,10.456H1589.8v7.974h-11.387Zm0,10.456H1589.8v7.974h-11.387Zm0,10.455H1589.8v7.974h-11.387Zm0,10.455H1589.8v7.974h-11.387Zm0,10.456H1589.8v6.452h-11.387Zm0,8.934H1589.8v7.973h-11.387Zm0,10.455H1589.8v7.974h-11.387Zm44.144,7.974h-11.387v-7.974h11.387Zm0-10.457h-11.387v-7.973h11.387Zm0-10.455h-11.387v-6.452h11.387Zm0-8.934h-11.387v-7.974h11.387Zm0-10.456h-11.387v-7.974h11.387Zm0-10.455h-11.387v-7.974h11.387Zm0-10.456h-11.387v-7.974h11.387Zm0-10.456h-11.387v-7.974h11.387Zm0-10.455h-11.387v-7.114h11.387Zm0-9.6h-11.387v-7.974h11.387Zm0-10.456h-11.387v-7.974h11.387Zm0-10.456h-11.387v-7.974h11.387Zm0-10.455h-11.387V928.1h11.387Zm0-10.455h-11.387V917.64h11.387Zm0-10.456h-11.387v-6.452h11.387Zm0-8.933h-11.387v-7.975h11.387Zm0-10.456h-11.387V887.8h11.387Zm0-10.456h-11.387V877.34h11.387Zm0-10.455h-11.387v-7.974h11.387Zm0-10.456h-11.387v-7.974h11.387Zm0-10.455h-11.387v-7.61h11.387Zm0-10.092h-11.387v-7.974h11.387Zm0-10.456h-11.387v-7.974h11.387Zm0-10.456h-11.387V814.97h11.387Zm0-10.455h-11.387v-7.975h11.387Zm0-10.456h-11.387v-7.974h11.387Zm0-10.456h-11.387v-6.452h11.387Zm0-8.934h-11.387V774.67h11.387Zm0-10.455h-11.387v-7.974h11.387Zm0-10.456h-11.387v-7.974h11.387Zm0-10.456h-11.387V743.3h11.387Zm0-10.456h-11.387v-7.973h11.387Z" transform="translate(-278.787 -144.119)"/><path class="b" d="M1320.635,1327.629a.949.949,0,0,0-1.133.711l-8.587,37.5c-2.32.069-4.677,2.58-5.479,6.078l-.818,3.573a4.961,4.961,0,0,0-.112.6l9.535,2.184a2.494,2.494,0,0,0,.186-.584l.818-3.573c.8-3.488-.225-6.768-2.289-7.852l8.588-37.506A.949.949,0,0,0,1320.635,1327.629Z" transform="translate(-137.56 -473.057)"/><path class="c" d="M1285.48,1429s19.806-5.131,26.129-.955-3.222,8.59-3.222,8.59Z" transform="translate(-127.36 -526.022)"/><g transform="translate(1173.991 546.252)"><path class="k" d="M1552.853,866.147c-3.786,11.588-24.418,31.619-27.27,33.616,0,0-4.8-8-3.84-12.481.784-3.658,8.817-16.7,11.566-23.1.144-.333.271-.65.384-.944a5.77,5.77,0,0,0,.531-2.2c-.138-1.392-4.512-4.778-9.6-8.795-6.609-5.222-14.418-11.505-15.685-15.848-2.24-7.68-10-38.093-10-38.093s19.282,4.17,24.723,8.971,28.8,44.8,29.762,55.046A9.611,9.611,0,0,1,1552.853,866.147Z" transform="translate(-1415.779 -735.57)"/><path class="f" d="M1579.053,940.645c-3.786,11.588-24.418,31.619-27.27,33.616,0,0-4.8-8-3.841-12.481.826-3.847,9.671-18.076,11.951-24.047C1563.32,937.137,1571.369,936.408,1579.053,940.645Z" transform="translate(-1441.979 -810.068)"/><path class="f" d="M1471.026,776.8l-.012,2.362s.642,7.386-8.452,8.465-15.944-2.218-15.7-7.918c.819-4.413,1.677-8.107,1.738-11.759a25.8,25.8,0,0,0-.323-4.423l17.624-.352,5.191.848Z" transform="translate(-1387.859 -716.74)"/><path class="g" d="M1472.736,764.025l-.067,12.775a14.908,14.908,0,0,1-6.353,1.4c-8.1,0-13.336-5.94-16.073-10.251a25.731,25.731,0,0,0-.323-4.423l17.624-.352Z" transform="translate(-1389.501 -716.74)"/><path class="e" d="M1441.8,1452.769s-.855-6.664-2.837-10.626-14.588-1.44-14.588-1.44-2.521,2.161-3.062,12.247Z" transform="translate(-1374.164 -1079.513)"/><path class="e" d="M1556.024,1443.232c-2.962-1.808-1.277-15.3-1.277-15.3s13.8-11.042,15.7-2.588,13.113,12.251,19.5,13.286c4.407.714,5.771,3.156,6.194,4.6Z" transform="translate(-1445.439 -1069.996)"/><path class="h" d="M1472.977,1133.919a63.669,63.669,0,0,1,1.013,7.456c1.283,25.029,21.069,82.259,24.608,83.594,5.476,2.066,14.1-2.326,18.611-3.764a3.869,3.869,0,0,0,2.715-4.4c-9.8-45.045-13.4-109.908-14.71-148.31a174.291,174.291,0,0,0-3.982-32.705s-48.257-12.875-48.544,3.412C1452.435,1053.62,1468.674,1110.144,1472.977,1133.919Z" transform="translate(-1390.983 -860.291)"/><path class="m" d="M1472.977,1133.919l32.237-65.42a174.291,174.291,0,0,0-3.982-32.705s-48.257-12.875-48.544,3.412C1452.435,1053.62,1468.674,1110.144,1472.977,1133.919Z" transform="translate(-1390.983 -860.291)"/><path class="h" d="M1457.018,1042.059l-25.511,184.894s-11.2,2.7-19.916.54c0,0-7.469-98.335-6.846-122.108s-5.36-63.613,1.365-68.007S1457.018,1042.059,1457.018,1042.059Z" transform="translate(-1364.288 -863.085)"/><path class="k" d="M1475,914.885s-13.035,7.6-31.917,7.387a141.719,141.719,0,0,1-19.2-1.444c-15.144-2.246-22.786-6.474-22.726-8.048.052-1.422.15-6.142.33-8.171,2.406-27.754,1.161-49.34,4.4-65.556.039-.2.077-.391.118-.583,4.285-20.617,11-32.461,14.338-37.32a18.4,18.4,0,0,1,2.023-2.611c0,3.846,8.193,7.169,14.873,6.733,5.626-.368,9.278-4.647,9.278-6.964l.006-.006c.46,0,25.379,17.32,25.4,33.415C1472.009,903.847,1476.38,914.911,1475,914.885Z" transform="translate(-1363.36 -735.57)"/><path class="l" d="M1423.917,967.678c-.013.08-.023.16-.035.236-15.144-2.246-22.786-6.474-22.726-8.048.052-1.421.15-6.142.33-8.171,2.406-27.754,1.161-49.34,4.4-65.556C1413.835,896.764,1430.176,924.591,1423.917,967.678Z" transform="translate(-1363.36 -782.656)"/><g transform="translate(8.447 123.877)"><path class="q" d="M1431.489,956.742l-2.035,6.772-2.023,6.721-87.85-26.425a1.058,1.058,0,0,1-.362-.042,1.144,1.144,0,0,1-.339-.166c-1.108-.784-1.31-3.655-.458-6.891.045-.179.1-.358.15-.54,1.027-3.479,2.9-6.052,4.33-6.074a1.114,1.114,0,0,1,.342.044,1.156,1.156,0,0,1,.323.157Z" transform="translate(-1337.896 -930.096)"/><path class="r" d="M1429.454,971.157l-2.023,6.721-87.85-26.425a1.058,1.058,0,0,1-.362-.042,1.149,1.149,0,0,1-.339-.166c-1.108-.784-1.31-3.655-.458-6.891,3.591,2.7,20.741,14.616,50.015,20.416C1418.7,970.764,1428.061,971.139,1429.454,971.157Z" transform="translate(-1337.896 -937.739)"/><path class="s" d="M1533.815,987.394c-1.469-.434-3.561,2.265-4.672,6.029s-.822,7.166.646,7.6,3.562-2.266,4.673-6.029S1535.284,987.828,1533.815,987.394Z" transform="translate(-1440.054 -960.787)"/></g><g transform="translate(0 119.791)"><path class="q" d="M1334.446,923.1l-10.357-1.68a1.191,1.191,0,0,0-.342-.112,1.121,1.121,0,0,0-.343,0c-1.421.211-2.935,3.005-3.5,6.589-.031.189-.057.371-.08.557a14.314,14.314,0,0,0,.038,4.231,3.582,3.582,0,0,0,1.283,2.515c.013.009.026.016.035.023a1.156,1.156,0,0,0,.359.121,1.075,1.075,0,0,0,.365-.006l90.554,14.692,1.124-6.925,1.13-6.98Z" transform="translate(-1319.689 -921.29)"/><path class="r" d="M1372.085,942.138c-19.369-1.245-29.635-11.486-37.639-19.042l-10.357-1.68a1.191,1.191,0,0,0-.342-.112,1.121,1.121,0,0,0-.343,0c-1.421.211-2.935,3.005-3.5,6.589-.031.189-.057.371-.08.557a14.314,14.314,0,0,0,.038,4.231,6.726,6.726,0,0,0,1.283,2.515c.013.009.026.016.035.023a1.156,1.156,0,0,0,.359.121,1.075,1.075,0,0,0,.365-.006l90.554,14.692,1.124-6.925C1412.2,943.264,1402.869,944.119,1372.085,942.138Z" transform="translate(-1319.689 -921.29)"/><path class="s" d="M1520.175,953.108c-1.513-.238-3.233,2.713-3.843,6.589s.124,7.212,1.637,7.45,3.234-2.712,3.844-6.589S1521.689,953.347,1520.175,953.108Z" transform="translate(-1424.988 -938.34)"/></g><path class="f" d="M1401.426,897.051c-21-3.341-34.887-12.142-40.587-16.4-1.946-1.453-2.938-2.378-2.938-2.378-10.762-22.627,8.708-62.3,12.267-69.022,3.84-7.252,27.29-10.439,27.29-10.439a127.639,127.639,0,0,0-5.207,25.375c-1.463,14.36-17.068,42.35-16.428,44.7.16.592,2.045,1.834,4.794,3.4,8.152,4.64,23.9,12.122,24.861,13.88C1406.758,888.517,1401.426,897.051,1401.426,897.051Z" transform="translate(-1338.453 -735.844)"/><path class="f" d="M1459.476,983.368s11.735-4.694,14.615-2.774,7.681,4.8,7.681,6.721-6.081,7.041-11.2,8.641-15.149-1.706-15.149-1.706Z" transform="translate(-1392.45 -833.042)"/><path class="k" d="M1392.251,824.189c-1.463,14.36-17.068,42.35-16.428,44.7.16.592,2.045,1.834,4.794,3.4a4.746,4.746,0,0,1-.528.01c-12.276-.541-17.833,6.251-19.25,8.353-1.946-1.453-2.938-2.378-2.938-2.378-10.762-22.627,8.708-62.3,12.267-69.022,3.84-7.252,27.29-10.439,27.29-10.439A127.639,127.639,0,0,0,1392.251,824.189Z" transform="translate(-1338.453 -735.844)"/><path class="f" d="M1468.877,735.336s-22.573,4.56-25.2-9.541-7.3-23.008,7-26.516,18.11,1.351,20.13,5.844S1474.681,733.787,1468.877,735.336Z" transform="translate(-1384.614 -681.844)"/><path class="i" d="M1436.931,723.12s-4.364-9.313-8-13.449-1.655-24.814,14.06-24.152,21.34,11.911,21.505,14.062-12.572.5-16.046,3.308-.166,7.444-4.135,9.1-7.113,1.654-6.452,5.293A7.984,7.984,0,0,1,1436.931,723.12Z" transform="translate(-1377.412 -675.103)"/><path class="k" d="M1438.268,663.9a24.859,24.859,0,0,0-10.389,5.108c-.25.214-.492.435-.726.659l0,0c-9.319,8.887-5.6,23.033-5.6,23.033a37.192,37.192,0,0,0,2.094,4.96c.853,1.387,13.228-.213,13.868-2.88a15.6,15.6,0,0,1,3.094-5.44s13.044-.9,13.921-.961c2.947-.213,11.357-3.14,11.357-3.14C1465.788,684.417,1461.055,658.178,1438.268,663.9Z" transform="translate(-1373.9 -663.084)"/><path class="l" d="M1480.714,689.283a44.313,44.313,0,0,0-8.63-.97s-3.691,3.059-11.031,5.389c-3.449-4.346-13.276-14.82-26.07-17.883l-.112-.029c-.272.342-.426.457-.614.688l0,0a3.05,3.05,0,0,0-.185.246c10.416,1.815,20.316,13.514,23.714,17.893a58.02,58.02,0,0,1-10.073,1.534s22.8.425,33.217-5.062A.974.974,0,0,0,1480.714,689.283Z" transform="translate(-1381.003 -669.895)"/><path class="l" d="M1567.52,902.874a6.514,6.514,0,0,1-5.4,5.7c.144-.333.271-.65.384-.944a5.767,5.767,0,0,0,.531-2.2c-.138-1.392-4.512-4.778-9.6-8.795-.42-2.278-1.444-9.041,0-14.408C1555.2,875.671,1568,900.153,1567.52,902.874Z" transform="translate(-1444.595 -779.965)"/><path class="l" d="M1381.259,953.636s-15.682-1.28-20.8,7.841a2.547,2.547,0,0,0,3.472,2.138s13.265-9.066,19.778-8.362A3.535,3.535,0,0,0,1381.259,953.636Z" transform="translate(-1341.543 -818.805)"/><path class="l" d="M1573.02,937.991a56.884,56.884,0,0,1,18.377,4.8s2.273-2.233,1.367-3.513S1577.438,933.4,1573.02,937.991Z" transform="translate(-1455.49 -809.382)"/></g><g transform="translate(1337.947 473.305)"><path class="f" d="M1780.16,743.737C1787.21,707.6,1793.671,673,1793.671,673s-20.069,3.041-28.71,10.241-9.515,53.053-12.4,66.014a101.191,101.191,0,0,0-1.513,11.659c-1.638,18.641.4,46.558,1.944,54.384-.1.753-.741,4.447-4.143,11.534,0,0-1.76,5.441,9.761,13.6C1765.958,845.636,1772.5,783.018,1780.16,743.737Z" transform="translate(-1713.653 -595.454)"/><path class="n" d="M1796.323,673s-3.725,19.939-8.6,45.353c-1.546,8.065-3.21,16.677-4.909,25.382-6.906,13.537-12.834,22.742-14.664,21.01-3.735-3.527-10.292-3.962-14.443-3.831a101.252,101.252,0,0,1,1.514-11.659c.227-1.024.442-2.253.649-3.651,2.417-16.309,3.786-55.732,11.745-62.362C1776.254,676.043,1796.323,673,1796.323,673Z" transform="translate(-1716.304 -595.454)"/><path class="o" d="M1787.721,744.488c-1.546,8.065-3.21,16.677-4.909,25.382-6.906,13.537-12.834,22.742-14.664,21.01-3.735-3.527-10.292-3.962-14.443-3.831a101.254,101.254,0,0,1,1.514-11.659c.227-1.024.442-2.253.649-3.651l20.708-49.987Z" transform="translate(-1716.304 -621.587)"/><path class="f" d="M1874.118,646.083a152.915,152.915,0,0,0-.905-22.347l-27.85,4.552s0,8.5.123,17.928l-.028,0s-.759,8.748,10.016,10.029S1874.409,652.834,1874.118,646.083Z" transform="translate(-1765.44 -569.044)"/><path class="g" d="M1845.2,637.249s6.561,13.442,14.082,13.442,14.561-12.642,14.561-12.642Z" transform="translate(-1765.35 -576.288)"/><path class="e" d="M1885.206,1450.085s1.014-7.894,3.36-12.588,17.282-1.707,17.282-1.707,2.987,2.56,3.627,14.509Z" transform="translate(-1786.798 -1003.854)"/><path class="e" d="M1720.615,1438.611c3.509-2.142,1.512-18.121,1.512-18.121s-16.352-13.082-18.6-3.067-15.535,14.513-23.1,15.74c-5.221.846-6.837,3.739-7.338,5.448Z" transform="translate(-1673.091 -992.486)"/><path class="e" d="M1868.744,568.634s18.592-29.313-17.106-31.252c0,0-13.39,1.576-16.421-1.455,0,0-10.386,15.784-.687,32.707S1868.744,568.634,1868.744,568.634Z" transform="translate(-1757.413 -521.973)"/><path class="f" d="M1842.945,598.781c2.706,2.129,10.64,4.244,12.934,4.491,0,0,11.766-2.624,13.9-3.914,3.312-2.007,3.1-6.072,3.269-11.722.2-6.688.878-11.94.131-15.8-.887-4.612-3.812-7.236-12-7.949-15.03-1.3-21.291,2.459-21.552,7.5-.068,1.353-.131,2.644-.175,3.865C1838.857,590.968,1840.1,596.54,1842.945,598.781Z" transform="translate(-1762.195 -536.824)"/><path class="h" d="M1784.164,1070.58a75.6,75.6,0,0,0-1.2,8.833c-1.519,29.651-24.959,97.448-29.152,99.028-6.487,2.448-16.7-2.756-22.047-4.457a4.584,4.584,0,0,1-3.216-5.207c11.608-53.363,15.874-130.2,17.426-175.7.784-22.915,4.717-38.744,4.717-38.744s57.168-15.253,57.507,4.042C1808.5,975.453,1789.262,1042.413,1784.164,1070.58Z" transform="translate(-1702.769 -743.199)"/><path class="m" d="M1804.408,1070.58l-38.19-77.5c.784-22.915,4.717-38.744,4.717-38.744s57.168-15.253,57.507,4.042C1828.743,975.453,1809.505,1042.413,1804.408,1070.58Z" transform="translate(-1723.013 -743.199)"/><path class="h" d="M1821.117,961.756l30.222,219.035s13.271,3.2,23.593.64c0,0,8.847-116.493,8.111-144.656s6.35-75.36-1.618-80.565S1821.117,961.756,1821.117,961.756Z" transform="translate(-1752.442 -746.509)"/><path class="b" d="M1859.52,805.148a4.516,4.516,0,0,1-4.445,4.692l-47.625.726-34.98.535c-1.638.028,3.54-13.077,3.646-98.526.025-19.068,29.546-39.586,30.09-39.586l.006.007c0,2.746,4.327,7.815,10.994,8.251,7.911.518,17.617-3.418,17.617-7.975a21.157,21.157,0,0,1,2.4,3.095c3.949,5.754,11.905,19.784,16.984,44.209,4.01,19.289,2.467,45.077,5.354,78.351C1859.77,801.329,1859.459,803.464,1859.52,805.148Z" transform="translate(-1726.193 -595.446)"/><path class="n" d="M1857.763,810.1s-6.33,2.836-18.171,5.29a179.087,179.087,0,0,1-35.208,3.537c-23.148.147-31.914-7.831-31.914-7.831-1.638.028,3.54-13.077,3.646-98.526.025-19.068,29.546-39.586,30.09-39.586l.006.007s-.758,25.392,6.922,32.858c0,0,10.773-8.32,24.749-32,3.949,5.754,11.243,22.3,16.322,46.725a132.183,132.183,0,0,1,2.163,16.216c1.347,16.853,1.047,37.431,3.191,62.135.212,2.4-.1,4.539-.038,6.222C1859.62,807.685,1860.3,810.066,1857.763,810.1Z" transform="translate(-1726.193 -595.446)"/><path class="o" d="M1925.17,865.335s-6.33,2.836-18.171,5.29c-3.726-5.68-8.421-15.934-9.07-32.093-1.1-27.325,24.856-62.514,24.856-62.514l.99,16c1.348,16.853,1.047,37.431,3.191,62.135.211,2.4-.1,4.539-.038,6.222C1927.027,862.916,1927.708,865.3,1925.17,865.335Z" transform="translate(-1793.6 -650.677)"/><rect class="e" width="51.089" height="70.081" transform="translate(64.844 147.678) rotate(-30)"/><path class="f" d="M1888.259,682.5c-5.418-4.1-18.146-7-24.41-8.238-2.207-.435-3.613-.662-3.613-.662.654,3.011,2.123,7.735,4.043,13.406,8.045,23.77,23.993,64.187,20.78,65.048a88.407,88.407,0,0,1-9.64,1.856c-13.987,2.048-32.809,2.954-34.779,3.045-.154-.145-6.859-6.395-9.469-6.395-2.641,0-10.253,2.774-11.03,4.908s-1.087,5.974,1.087,6.827a97.725,97.725,0,0,0,13.516,3.2,6.21,6.21,0,0,0,1.121-.01,236.055,236.055,0,0,0,42.246,8.477c15.489,1.59,24.55.707,24.55.707C1913.88,750.517,1895.588,688.036,1888.259,682.5Z" transform="translate(-1751.606 -595.772)"/><path class="n" d="M1953.2,775.336s-9.06.883-24.55-.707c.854-4.209,1.648-12.427-2.692-20.054a88.417,88.417,0,0,0,9.64-1.856c3.213-.861-12.735-41.278-20.78-65.048-.643-7.684-.982-12.826-.982-12.826l.553.083c6.264,1.235,18.992,4.142,24.409,8.238C1946.126,688.706,1964.419,751.186,1953.2,775.336Z" transform="translate(-1802.144 -596.442)"/><path class="o" d="M1860.487,702.838s21.549-9.494,21.869-10.241-1.067-6.507-2.561-8.214c0,0,10.348.96,10.988-.321s1.12-11.812,1.12-11.812-4.307-4.459-9.641-4.886c0,0-4.683,11.637-6.414,15.1C1871.261,691.637,1860.487,702.838,1860.487,702.838Z" transform="translate(-1773.547 -592.431)"/><path class="o" d="M1836.436,684.115s1.388,11.095,5.121,18.775c0,0-11.254-7.84-12.215-10.4s2.721-7.521,2.721-7.521-6.721-.159-6.881-2.4,2.08-11.041,2.08-11.041,5.781-4.221,7.381-4.061Z" transform="translate(-1754.617 -592.484)"/><g transform="translate(70.43 0)"><path class="k" d="M1872.77,536.181l-47.856.512s-.7-14.43,7.591-23.632q.567-.638,1.2-1.238a21.329,21.329,0,0,1,6.536-4.248c9.566-3.99,17.5-.308,22.457,3.464.488.369.948.741,1.376,1.11a28.768,28.768,0,0,1,4.2,4.334S1872.925,522.822,1872.77,536.181Z" transform="translate(-1824.899 -505.85)"/><path class="l" d="M1859.344,542.922c-.131-1.943-.976-18.492,4.837-24.1a9.2,9.2,0,0,0-.793-.663c-6.2,6.451-6.692,22.739-6.666,24.793l-15.3.163c-.453-11.72-6.923-23.391-7.7-24.693a10.813,10.813,0,0,0-.883.906c1.123,1.975,5.346,13.274,5.75,23.818l-13.663.146s12.746,3.3,22.345,3.176,25.51-3.687,25.51-3.687Z" transform="translate(-1824.916 -512.447)"/></g></g></g></svg>