<svg xmlns="http://www.w3.org/2000/svg" xmlns:xlink="http://www.w3.org/1999/xlink" width="30" height="30" viewBox="0 0 30 30"><defs><style>.a{fill:#9f1313;}.b{clip-path:url(#a);}.c{fill:#7639ae;}</style><clipPath id="a"><rect class="a" width="30" height="30" transform="translate(563 494)"/></clipPath></defs><g class="b" transform="translate(-563 -494)"><g transform="translate(563 494)"><path class="c" d="M23.882,5.137A10.181,10.181,0,0,0,15.231,0c-.154,0-.308,0-.462,0A10.181,10.181,0,0,0,6.118,5.137a10.444,10.444,0,0,0-.136,10.32l7.439,13.616.01.018a1.808,1.808,0,0,0,3.137,0l.01-.018,7.439-13.616a10.444,10.444,0,0,0-.136-10.32ZM15,13.594a4.219,4.219,0,1,1,4.219-4.219A4.224,4.224,0,0,1,15,13.594Z"/></g></g></svg>