<svg xmlns="http://www.w3.org/2000/svg" xmlns:xlink="http://www.w3.org/1999/xlink" width="87" height="86" viewBox="0 0 87 86"><defs><style>.a{fill:#8d1616;}.b{clip-path:url(#a);}.c{fill:#7639ae;}</style><clipPath id="a"><rect class="a" width="87" height="86" transform="translate(224.326 1399)"/></clipPath></defs><g class="b" transform="translate(-224.326 -1399)"><g transform="translate(215.247 1389.421)"><path class="c" d="M18.657,25.474a4.907,4.907,0,1,0-4.907-4.907A4.913,4.913,0,0,0,18.657,25.474Zm0-7.01a2.1,2.1,0,1,1-2.1,2.1A2.105,2.105,0,0,1,18.657,18.463Z"/><path class="c" d="M94.37,11.968a1.588,1.588,0,1,0,1.588,1.588A1.588,1.588,0,0,0,94.37,11.968Z"/><path class="c" d="M77.607,17.123a1.4,1.4,0,0,0,0-1.983l-1.584-1.584,1.584-1.584a1.4,1.4,0,0,0-1.983-1.983L74.04,11.574,72.455,9.989a1.4,1.4,0,0,0-1.983,1.983l1.584,1.584L70.473,15.14a1.4,1.4,0,1,0,1.983,1.983l1.584-1.584,1.584,1.584a1.4,1.4,0,0,0,1.983,0Z"/><path class="c" d="M66.987,69.356l-5.5-2.5-5.671-2.578V63.1a20.993,20.993,0,0,0,11.095-13.1,4.6,4.6,0,0,0,2.637-.754A4.979,4.979,0,0,0,71.9,45.719a4.891,4.891,0,0,0-3.469-5.312s-.023-1.072-.027-1.162a4.17,4.17,0,0,0,1.43-7.069v-.393A20.354,20.354,0,0,0,49.5,11.453H48.1a20.354,20.354,0,0,0-20.33,20.33v.393a4.19,4.19,0,0,0,2.8,7.319h.1c.007.346.011.649.011.872a4.915,4.915,0,0,0-3.609,4.915,4.982,4.982,0,0,0,2.277,3.874,4.54,4.54,0,0,0,2.681.855A20.922,20.922,0,0,0,41.8,62.6c0,.012-.007.022-.007.034v1.646L36.12,66.854h0l-5.5,2.5a14.577,14.577,0,0,0-8.455,13.288V94.176a1.4,1.4,0,0,0,1.4,1.4H74.039a1.4,1.4,0,0,0,1.4-1.4V82.643a14.574,14.574,0,0,0-8.455-13.287Zm-11.63-2.207,3.723,1.693L55.5,77.3,51.2,71.292a7.009,7.009,0,0,0,4.153-4.143ZM65.525,39.495c0,.235-.006.461-.006.657-6.346,3.5-12.862,1.527-17.111-.657ZM48.1,14.257h1.4A17.534,17.534,0,0,1,66.994,31.082H30.61A17.533,17.533,0,0,1,48.1,14.257ZM29.173,35.289a1.4,1.4,0,0,1,1.4-1.4H67.029a1.4,1.4,0,0,1,0,2.8H30.575A1.4,1.4,0,0,1,29.173,35.289ZM34.462,48.13a1.4,1.4,0,0,0-1.821-1.047,1.742,1.742,0,0,1-1.724-.251,2.215,2.215,0,0,1-1.043-1.65A2.1,2.1,0,0,1,31.976,43a1.479,1.479,0,0,0,1.275-.772,1,1,0,0,0,.585-.008A13.869,13.869,0,0,0,38.718,39.6c.037-.029.054-.071.088-.1h4.246c2.4,1.742,8.236,5.391,15.049,5.391a17.853,17.853,0,0,0,8.325-2.035,1.413,1.413,0,0,0,.6.149,2.1,2.1,0,0,1,2.086,2.377,2.158,2.158,0,0,1-1.053,1.5,1.805,1.805,0,0,1-1.727.2A1.4,1.4,0,0,0,64.5,48.1,18.154,18.154,0,0,1,52.407,61.462l-.624.2a8.455,8.455,0,0,1-5.146.064,18.126,18.126,0,0,1-12.175-13.6ZM45.779,64.4a10.709,10.709,0,0,0,3.287.512,11.632,11.632,0,0,0,3.582-.577l.361-.117v.518a4.206,4.206,0,1,1-8.413,0v-.8c.4.154.776.334,1.183.465Zm-3.532,2.752A7.008,7.008,0,0,0,46.4,71.292L42.107,77.3l-3.582-8.461ZM24.966,82.643a11.768,11.768,0,0,1,6.811-10.735L35.971,70,40.5,80.7a1.4,1.4,0,0,0,1.137.848,1.433,1.433,0,0,0,.154.008,1.4,1.4,0,0,0,1.141-.587L47.4,74.716V92.774H34.781V87.166a1.4,1.4,0,0,0-2.8,0v5.608h-7.01ZM72.638,92.774H67.029V87.166a1.4,1.4,0,0,0-2.8,0v5.608H50.2V74.716l4.467,6.254a1.4,1.4,0,0,0,1.141.587,1.524,1.524,0,0,0,.154-.008A1.4,1.4,0,0,0,57.1,80.7L61.633,70l4.194,1.906a11.766,11.766,0,0,1,6.811,10.735Z"/><circle class="c" cx="1.402" cy="1.402" r="1.402" transform="translate(55.111 45.804)"/><circle class="c" cx="1.402" cy="1.402" r="1.402" transform="translate(41.09 45.804)"/><path class="c" d="M46.3,25.349,48,25.4l-1.85,1.888a1.4,1.4,0,1,0,2,1.962l4.083-4.167a1.4,1.4,0,0,0-.957-2.383l-2.089-.068,2.074-2.586A1.4,1.4,0,0,0,49.079,18.3l-3.828,4.773A1.4,1.4,0,0,0,46.3,25.349Z"/><path class="c" d="M89.955,28.224a1.4,1.4,0,0,0-1.247-.761h-2.36l1.719-9.457A1.4,1.4,0,0,0,85.508,17l-9.09,14.139A1.4,1.4,0,0,0,77.6,33.3h3.048L77.29,42.526a1.4,1.4,0,0,0,2.458,1.294l10.1-14.139a1.4,1.4,0,0,0,.107-1.456Zm-6.521,5.613.532-1.462a1.4,1.4,0,0,0-1.318-1.881H80.167l3.877-6.031-.755,4.153a1.4,1.4,0,0,0,1.379,1.653h1.315Z"/><path class="c" d="M22.162,69.831a1.377,1.377,0,0,0,.34-.744l.314-2.964a3.125,3.125,0,0,1,.972-2.051A8.466,8.466,0,0,0,26.713,57.7a8.667,8.667,0,0,0-8.757-8.554A8.667,8.667,0,0,0,9.2,57.7a8.466,8.466,0,0,0,2.925,6.373,3.118,3.118,0,0,1,.971,2.05l.314,2.965a1.375,1.375,0,0,0,.34.744v1.912a4.206,4.206,0,1,0,8.413,0V69.831ZM12,57.7a5.861,5.861,0,0,1,5.953-5.75,5.861,5.861,0,0,1,5.953,5.75,5.665,5.665,0,0,1-1.964,4.26,5.906,5.906,0,0,0-1.918,3.867l-.181,1.711h-.489v-6.43l2.393-2.393a1.4,1.4,0,1,0-1.983-1.983l-1.937,1.937L16.209,56.8a1.4,1.4,0,1,0-2.116,1.84l2.46,2.829v6.066h-.489l-.182-1.712a5.9,5.9,0,0,0-1.917-3.866A5.67,5.67,0,0,1,12,57.7Zm7.355,14.044a1.4,1.4,0,1,1-2.8,0v-1.4h2.8Z"/><path class="c" d="M90.865,71.743h-2.8V59.7l3.8-3.8a1.4,1.4,0,0,0,.311-1.512l-2.8-7.01a1.4,1.4,0,0,0-1.3-.881h-2.8a1.4,1.4,0,0,0-1.3.881l-2.8,7.01a1.4,1.4,0,0,0,.315,1.517l3.791,3.757V71.743h-2.8a1.4,1.4,0,0,0-1.4,1.4V89.97a5.608,5.608,0,0,0,11.217,0V73.145a1.4,1.4,0,0,0-1.4-1.4ZM86.206,49.309h.905L89.22,54.58l-2.547,2.546L84.1,54.576ZM89.463,89.97a2.8,2.8,0,0,1-5.608,0V74.547h5.608Z"/><path class="c" d="M61.421,84.362H54.41a1.4,1.4,0,0,0,0,2.8h7.01a1.4,1.4,0,1,0,0-2.8Z"/></g></g></svg>