<svg xmlns="http://www.w3.org/2000/svg" xmlns:xlink="http://www.w3.org/1999/xlink" width="87" height="86" viewBox="0 0 87 86"><defs><style>.a{fill:#8d1616;}.b{clip-path:url(#a);}.c{fill:#7639ae;}</style><clipPath id="a"><rect class="a" width="87" height="86" transform="translate(224.326 1399)"/></clipPath></defs><g class="b" transform="translate(-224.326 -1399)"><g transform="translate(221.426 1398.498)"><path class="c" d="M39.919,34.72l5.456,5.456a1.45,1.45,0,0,0,2.051,0l5.456-5.456a3.993,3.993,0,0,0,0-5.638A5.031,5.031,0,0,0,49.3,27.6h0a5.028,5.028,0,0,0-2.9.912,5.073,5.073,0,0,0-6.479.571,3.988,3.988,0,0,0,0,5.64Zm2.052-3.59a2.166,2.166,0,0,1,3.06,0l.344.344a1.45,1.45,0,0,0,2.051,0l.344-.344A2.149,2.149,0,0,1,49.3,30.5h0a2.15,2.15,0,0,1,1.53.634,1.089,1.089,0,0,1,0,1.538L46.4,37.1l-4.43-4.43a1.088,1.088,0,0,1,0-1.539Z"/><path class="c" d="M88.849,14.556l-20.3-5.8c-.018-.005-.038-.008-.056-.013s-.056-.014-.084-.018l-.078-.011c-.029,0-.059-.007-.088-.009l-.077,0h-.089L68,8.711c-.029,0-.058.006-.086.011s-.053.011-.08.016-.036.006-.056.011l-21.363,5.7L26.5,8.756c-.018-.005-.037-.008-.056-.013s-.056-.014-.085-.018-.051-.008-.077-.011-.059-.007-.088-.009l-.077,0h-.089l-.078.007c-.026,0-.057.006-.086.011s-.054.011-.08.016l-.055.011-21.75,5.8A1.45,1.45,0,0,0,2.9,15.95v60.9a1.45,1.45,0,0,0,1.824,1.4l21.363-5.7L46,78.244c.036.01.072.015.108.023s.047.011.071.015a1.44,1.44,0,0,0,.219.018h0a1.47,1.47,0,0,0,.212-.017c.023,0,.045-.009.067-.013s.063-.01.094-.018l21.363-5.7,19.915,5.69A1.45,1.45,0,0,0,89.9,76.85V15.95a1.45,1.45,0,0,0-1.051-1.394ZM81.2,63.8H75.4V61.5l1.736-1.736L81.2,61.8Zm2.1-4.2-5.8-2.9a1.45,1.45,0,0,0-1.674.272l-2.9,2.9A1.45,1.45,0,0,0,72.5,60.9v2.9H69.6v-29H87v29H84.1V60.9a1.45,1.45,0,0,0-.8-1.3ZM56.55,63.8h-2.9V61.5l1.45-1.45,1.45,1.45Zm2.475-3.925-2.9-2.9a1.45,1.45,0,0,0-2.051,0l-2.9,2.9A1.45,1.45,0,0,0,50.75,60.9v2.9h-2.9V58.41L56.2,44.85A21.927,21.927,0,0,0,59.4,34.8h7.3v29H59.45V60.9a1.45,1.45,0,0,0-.425-1.025ZM27.55,55.113l1.468-.013a5.8,5.8,0,0,0,0-11.6H27.55V34.8H33.4A21.925,21.925,0,0,0,36.6,44.849L44.95,58.41V63.8H27.55ZM24.65,63.8H18.825a4.306,4.306,0,0,1-.038-8.611l5.863-.051Zm2.9-11.587V46.4h1.468a2.9,2.9,0,0,1-.012,5.8ZM17.4,43.5H14.5V41.2l1.45-1.45L17.4,41.2Zm2.475-3.925-2.9-2.9a1.45,1.45,0,0,0-2.051,0l-2.9,2.9A1.45,1.45,0,0,0,11.6,40.6v2.9H5.8V34.8H24.65v8.7H20.3V40.6a1.45,1.45,0,0,0-.425-1.025ZM46.4,23.2A10.15,10.15,0,1,1,36.25,33.35,10.15,10.15,0,0,1,46.4,23.2Zm0,32.033L39.889,44.652a13,13,0,0,0,13.023,0ZM87,31.9H69.6V12.072L87,17.044Zm-20.3,0H59.368A13.072,13.072,0,0,0,47.85,20.382V17.064L66.7,12.037ZM44.95,20.382A13.072,13.072,0,0,0,33.432,31.9H27.55V12.072l17.4,4.972Zm-20.3-8.345V31.9H5.8V17.064ZM5.8,46.4H24.65v5.838l-5.888.051A7.206,7.206,0,0,0,18.825,66.7H24.65v3.236L5.8,74.963ZM27.55,66.7h17.4v8.229l-17.4-4.972Zm20.3,0H66.7v3.236L47.85,74.963ZM69.6,69.956V66.7H87v8.229Z"/></g></g></svg>