<svg xmlns="http://www.w3.org/2000/svg" xmlns:xlink="http://www.w3.org/1999/xlink" width="87" height="86" viewBox="0 0 87 86"><defs><style>.a{fill:#8d1616;}.b{clip-path:url(#a);}.c{fill:#7639ae;}</style><clipPath id="a"><rect class="a" width="87" height="86" transform="translate(224.326 1399)"/></clipPath></defs><g class="b" transform="translate(-224.326 -1399)"><g transform="translate(221.948 1396.113)"><rect class="c" width="2.867" height="2.867" transform="translate(37.275 28.673)"/><rect class="c" width="2.867" height="2.867" transform="translate(51.612 28.673)"/><path class="c" d="M51.612,35.842H48.745a2.867,2.867,0,1,1-5.735,0H40.143a5.735,5.735,0,0,0,11.469,0Z"/><path class="c" d="M75.984,71.941v-1.19A15.661,15.661,0,0,0,64.916,55.712L53.046,52V47.01a15.862,15.862,0,0,0,3.986-2.882,15.689,15.689,0,0,0,4.344-8.287h.272a5.735,5.735,0,0,0,2.093-11.068c.043-.072.1-.158.143-.244l.158-.3a4.3,4.3,0,0,0-.029-3.9,4.234,4.234,0,0,0-2.38-2.05,15.76,15.76,0,0,0-31.512,0,4.234,4.234,0,0,0-2.38,2.05,4.3,4.3,0,0,0-.029,3.9l.143.287c.057.1.115.172.158.258a5.735,5.735,0,0,0,2.093,11.068h.272a15.832,15.832,0,0,0,8.33,11.168V52L26.838,55.7A15.691,15.691,0,0,0,15.77,70.751v1.19a4.284,4.284,0,0,0,0,8.086v7.426A1.434,1.434,0,0,0,17.2,88.887H74.551a1.434,1.434,0,0,0,1.434-1.434V80.027a4.284,4.284,0,0,0,0-8.086ZM61.648,27.24a2.867,2.867,0,0,1,0,5.735ZM30.107,32.974a2.867,2.867,0,0,1,0-5.735Zm27.24,23.369,2.867.9v13a1.434,1.434,0,0,1-2.867,0ZM55.8,10.394a12.912,12.912,0,0,1,2.939,7.34l-4.889-.76ZM45.877,5.735a12.871,12.871,0,0,1,7.584,2.48L51,16.544l-1.419-.215a23.709,23.709,0,0,0-7.4,0l-1.419.215-2.466-8.33A12.771,12.771,0,0,1,45.877,5.735Zm-9.921,4.659,1.95,6.581-4.889.76A12.778,12.778,0,0,1,35.956,10.394ZM30.422,23.24l-.143-.287a1.442,1.442,0,0,1,.014-1.3,1.4,1.4,0,0,1,1.047-.76l11.269-1.735a22.041,22.041,0,0,1,6.538,0l11.269,1.735a1.4,1.4,0,0,1,1.047.76,1.442,1.442,0,0,1,.014,1.3l-.143.287a1.462,1.462,0,0,1-1.548.774L49.218,22.093a18.682,18.682,0,0,0-6.681,0L31.971,24.014a1.462,1.462,0,0,1-1.548-.774Zm2.552,9.735V26.738L43.053,24.9a16.25,16.25,0,0,1,5.649,0L58.78,26.738v6.236a12.9,12.9,0,1,1-25.806,0Zm17.2,15.168v4.9a4.3,4.3,0,0,1-8.6,0V48.128a15.29,15.29,0,0,0,4.3.616,15.9,15.9,0,0,0,4.3-.6Zm-12.9,7.3,1.706-.53a7.135,7.135,0,0,0,13.792,0l1.706.53V65.949h-17.2Zm-5.735,1.806,2.867-.9V70.25a1.434,1.434,0,0,1-2.867,0ZM25.806,86.02H18.638V80.285h7.168Zm0-8.6H17.2a1.434,1.434,0,0,1,0-2.867h8.6Zm0-7.168v1.434H18.638v-.932A12.844,12.844,0,0,1,27.7,58.436l.975-.3v8.072A4.315,4.315,0,0,0,25.806,70.25ZM63.081,86.02H28.673V70.25a4.3,4.3,0,1,0,8.6,0V68.816h17.2V70.25a4.3,4.3,0,1,0,8.6,0Zm0-19.813V58.135l.975.315a12.814,12.814,0,0,1,9.061,12.3v.932H65.949V70.25A4.315,4.315,0,0,0,63.081,66.207ZM73.117,86.02H65.949V80.285h7.168Zm1.434-8.6h-8.6V74.551h8.6a1.434,1.434,0,0,1,0,2.867Z"/></g></g></svg>