<svg xmlns="http://www.w3.org/2000/svg" xmlns:xlink="http://www.w3.org/1999/xlink" width="87" height="86" viewBox="0 0 87 86"><defs><style>.a{fill:#8d1616;}.b{clip-path:url(#a);}.c{fill:#7639ae;}</style><clipPath id="a"><rect class="a" width="87" height="86" transform="translate(224.326 1399)"/></clipPath></defs><g class="b" transform="translate(-224.326 -1399)"><g transform="translate(224.326 1398.497)"><path class="c" d="M86.406,38,33.39,7.388a6.635,6.635,0,0,0-9.05,2.424l-6.1,10.571L14.173,27.42A6.636,6.636,0,0,0,16.6,36.473L34.777,46.967l-2.827,4.82a4.265,4.265,0,0,1-3.665,2.1H17.672V45.8a1.189,1.189,0,0,0-1.189-1.189H10.026V43.074a5.274,5.274,0,0,0-5.268-5.268H1.189A1.189,1.189,0,0,0,0,39V79.314A1.189,1.189,0,0,0,1.189,80.5H4.758a5.274,5.274,0,0,0,5.268-5.268V71.457h6.457a1.189,1.189,0,0,0,1.189-1.189V64.422H28.285a14.84,14.84,0,0,0,12.752-7.3L43.9,52.236l9.964,5.752a6.593,6.593,0,0,0,3.3.89,6.661,6.661,0,0,0,1.726-.228,6.586,6.586,0,0,0,2.879-1.624,9.909,9.909,0,0,0,4.159.92,10.068,10.068,0,0,0,2.607-.345,9.933,9.933,0,0,0,5.418-3.67l2.436,1.406a1.189,1.189,0,0,0,1.625-.436l8.822-15.28A1.19,1.19,0,0,0,86.406,38ZM7.647,75.236a2.891,2.891,0,0,1-2.889,2.889H2.379V40.186H4.758a2.891,2.891,0,0,1,2.889,2.889Zm7.647-6.157H10.026V46.988h5.268ZM38.985,55.915a12.451,12.451,0,0,1-10.7,6.129H17.672V56.267H28.285A6.653,6.653,0,0,0,34,52.992l2.838-4.834,5,2.889Zm16.071.013L17.789,34.413a4.253,4.253,0,0,1-1.555-5.8L19.7,22.6,53.853,42.321l10.471,6.045-3.467,6.009,0,.007a4.2,4.2,0,0,1-.3.442v0A4.252,4.252,0,0,1,55.055,55.928ZM67.927,55.3a7.582,7.582,0,0,1-4.715-.248l3.176-5.5,5.5,3.176A7.582,7.582,0,0,1,67.925,55.3Zm8.629-2.624-7.692-4.441L66.542,46.9,40.281,31.738,20.891,20.543,26.4,11a4.253,4.253,0,0,1,5.8-1.554L84.187,39.461Z"/><path class="c" d="M71.473,46.215a4.546,4.546,0,0,0,2.28.615,4.578,4.578,0,1,0-2.28-.615Zm.387-5.059a2.183,2.183,0,0,1,1.333-1.02,2.2,2.2,0,1,1-1.332,1.023Z"/><path class="c" d="M30.926,34.168,21.179,28.54A1.189,1.189,0,1,0,19.99,30.6l9.75,5.628a1.189,1.189,0,0,0,1.187-2.059Z"/></g></g></svg>