<svg xmlns="http://www.w3.org/2000/svg" xmlns:xlink="http://www.w3.org/1999/xlink" width="87" height="86" viewBox="0 0 87 86"><defs><style>.a{fill:#8d1616;}.b{clip-path:url(#a);}.c{fill:#7639ae;}</style><clipPath id="a"><rect class="a" width="87" height="86" transform="translate(224.326 1399)"/></clipPath></defs><g class="b" transform="translate(-224.326 -1399)"><g transform="translate(224.823 1398.997)"><path class="c" d="M79.765,15.272a1.679,1.679,0,1,0,.492,1.188A1.692,1.692,0,0,0,79.765,15.272Z"/><path class="c" d="M64.012,36.033A1.678,1.678,0,1,0,64.5,37.22,1.692,1.692,0,0,0,64.012,36.033Z"/><path class="c" d="M84.326,50.391H81.3v-.4a5.039,5.039,0,1,0-10.079,0v.4H68.367v-7.46H80.21a5.8,5.8,0,0,0,5.8-5.8V13.787a5.8,5.8,0,0,0-5.8-5.8H45.438a1.68,1.68,0,1,0,0,3.36h15.88l-7.943,7.943a1.68,1.68,0,1,0,2.376,2.376L66.069,11.351H80.21a2.439,2.439,0,0,1,2.436,2.436V31.509H65.9l9.886-9.886a1.68,1.68,0,1,0-2.376-2.376L61.489,31.172a1.674,1.674,0,0,0-.259.337H43V20.482a1.68,1.68,0,1,0-3.36,0V37.136a5.8,5.8,0,0,0,5.8,5.8H57.281v7.46h-29.4a8.413,8.413,0,0,0-8.23-6.719H18.135v-.651a1.68,1.68,0,1,0-3.36,0v.651H13.253l-9.5-17.9L15.83,13.75l.629.629a11.962,11.962,0,0,0-.132,1.77,11.722,11.722,0,0,0,3.456,8.343l2.982,2.982,3.929,10.159a1.68,1.68,0,0,0,3.133-1.212l-3.662-9.469L38.931,14.187l9.515,3.664a1.68,1.68,0,1,0,1.207-3.135l-10.2-3.929L36.47,7.806A11.789,11.789,0,0,0,26.364,4.488L23.009,1.134a3.871,3.871,0,0,0-5.469,0L13.111,5.562a3.872,3.872,0,0,0,0,5.469l.343.343L.495,24.269a1.68,1.68,0,0,0-.3,1.978L9.449,43.672H8.4a8.408,8.408,0,0,0-8.4,8.4v8.063a1.68,1.68,0,0,0,1.68,1.68H6.717V84.323A1.68,1.68,0,0,0,8.4,86h6.719a1.68,1.68,0,0,0,1.68-1.68V61.814H35.864a1.68,1.68,0,1,0,0-3.36H3.36v-4.7H82.646v4.7H50.814a1.68,1.68,0,1,0,0,3.36H69.207V84.323A1.68,1.68,0,0,0,70.887,86h6.719a1.68,1.68,0,0,0,1.68-1.68V61.814h5.04a1.68,1.68,0,0,0,1.68-1.68V52.071A1.68,1.68,0,0,0,84.326,50.391ZM28.127,7.71a8.449,8.449,0,0,1,2.55.392L23.37,15.408a1.68,1.68,0,1,0,2.376,2.376l7.962-7.963c.131.116.261.235.386.36l2.045,2.045L24.2,24.162l-2.045-2.045A8.439,8.439,0,0,1,28.127,7.71Zm-12.64.228,4.429-4.429a.508.508,0,0,1,.718,0l2.131,2.131a11.81,11.81,0,0,0-5.15,5.143L15.487,8.656A.508.508,0,0,1,15.487,7.938Zm-5.41,53.876h3.36V82.643h-3.36ZM3.647,50.391A5.048,5.048,0,0,1,8.4,47.032H19.654a5.048,5.048,0,0,1,4.751,3.36Zm41.791-10.82A2.439,2.439,0,0,1,43,37.136V34.869H82.646v2.268a2.439,2.439,0,0,1-2.436,2.436Zm19.57,10.82H60.64v-7.46h4.367Zm12.934-.069h-3.36v-.336a1.68,1.68,0,0,1,3.36,0ZM75.926,82.643h-3.36V61.814h3.36Z"/><path class="c" d="M44.862,58.947a1.678,1.678,0,1,0,.492,1.188A1.691,1.691,0,0,0,44.862,58.947Z"/></g></g></svg>