<svg xmlns="http://www.w3.org/2000/svg" xmlns:xlink="http://www.w3.org/1999/xlink" width="87" height="86" viewBox="0 0 87 86"><defs><style>.a{fill:#8d1616;}.b{clip-path:url(#a);}.c{fill:#7639ae;}</style><clipPath id="a"><rect class="a" width="87" height="86" transform="translate(224.326 1399)"/></clipPath></defs><g class="b" transform="translate(-224.326 -1399)"><g transform="translate(224.826 1399)"><path class="c" d="M27.992,20.709c.06,0,6.044-.379,8.51,1.515.008.006.018.011.026.017a10.109,10.109,0,0,0,12.86.069c.016-.01.033-.019.049-.03,2.741-2.019,9.36-1.576,9.426-1.571a.743.743,0,0,0,.785-.616c1.075-6.334-1.339-11.79-6.982-15.777a28.541,28.541,0,0,0-8.8-4.092A7.552,7.552,0,0,0,42.246,0a4.191,4.191,0,0,0-3.133,1.4,4.341,4.341,0,0,0-1.423-.239A4.393,4.393,0,0,0,34.609,2.41a27.349,27.349,0,0,0-4.573,5.255c-2.845,4.267-3.818,8.586-2.813,12.489A.741.741,0,0,0,27.992,20.709Zm6.357-6.263A8.627,8.627,0,0,1,37.028,8.19c2.592,2.485,7.993,7.019,14.3,8.631A8.654,8.654,0,0,1,34.35,14.447ZM35.587,3.528c.015-.013.029-.026.043-.039a2.924,2.924,0,0,1,3.353-.536.741.741,0,0,0,.894-.186h0a2.924,2.924,0,0,1,2.365-1.282,6.235,6.235,0,0,1,1.239.174l.024.006a27.4,27.4,0,0,1,8.3,3.864c5.02,3.547,7.2,8.142,6.472,13.665a26.127,26.127,0,0,0-6.651.572,10.033,10.033,0,0,0,1.147-2.631,17.53,17.53,0,0,0,2.594.268h.02a.743.743,0,0,0,.019-1.485C45.634,15.662,36.6,5.64,36.508,5.539a.743.743,0,0,0-1.11.987c.05.056.248.277.577.617a10.124,10.124,0,0,0-1.63,12.575,23.544,23.544,0,0,0-5.817-.518C26.893,10.966,35.5,3.6,35.587,3.528Z"/><path class="c" d="M62.932,62.291l-4.721-16.1,3.728-5.225.005-.008,0,0a4.466,4.466,0,0,0-1.061-6.218l-3.642-2.577c-.017-.012.018.011,0,0a6.916,6.916,0,0,0-6.518-4.664c-.072,0-.143,0-.214.005a12.889,12.889,0,0,0-15.55.4,4.471,4.471,0,0,0-5.3,2.9l-3.9,11.538a4.473,4.473,0,0,0,1.656,5.089L23.068,62.291a.743.743,0,0,0,.713.952h8.08V80.913a5.087,5.087,0,0,0,10.173,0V63.242h1.932V80.913a5.087,5.087,0,0,0,10.173,0V63.242h8.08a.743.743,0,0,0,.713-.952ZM60.2,58.257H25.8l1.225-4.179h5.182a.743.743,0,1,0,0-1.485H27.459l1.326-4.521,9.444,3.188a4.46,4.46,0,0,0,5.83-5.012L48.1,45.4a4.477,4.477,0,0,0,4.272,5.749,4.5,4.5,0,0,0,.761-.065,4.445,4.445,0,0,0,2.889-1.819l1.1-1.539ZM45.38,38.637l-3.036-.748,1.7-1.984A6.838,6.838,0,0,0,45.38,38.637Zm-4.652-1.146-2.431-.6,3.663-.834Zm-4.071.526L48.8,40.93a6.838,6.838,0,0,0,5.226-.57,3.966,3.966,0,0,1-3.037,2.917l-7.443,1.562A4.421,4.421,0,0,0,41.1,42.8l-5.436-1.835Zm23.369-2.074a2.979,2.979,0,0,1,.721,4.131c-.013.017-.026.035-.037.052l-5.9,8.276A2.98,2.98,0,0,1,49.9,45.022l1.395-.293a5.448,5.448,0,0,0,4.335-5.512.694.694,0,0,0-.009-.069,6.834,6.834,0,0,0,1.965-4.8c0-.046,0-.092,0-.139ZM56.1,34.349a5.373,5.373,0,1,1-5.373-5.373A5.379,5.379,0,0,1,56.1,34.349Zm-7.723-6.443a6.871,6.871,0,0,0-4.5,6.193L37.49,35.553l.638-1.889a4.473,4.473,0,0,0-1.636-5.075A11.378,11.378,0,0,1,43,26.566,11.568,11.568,0,0,1,48.377,27.906Zm-21.2,14.9,3.9-11.538a2.982,2.982,0,1,1,5.647,1.918l-2.7,8.005a.743.743,0,0,0,.466.941l6.139,2.072a2.983,2.983,0,0,1-.95,5.808,3.007,3.007,0,0,1-.968-.161L29.068,46.6l-.038-.013-.018-.005A2.979,2.979,0,0,1,27.179,42.809Zm13.371,38.1a3.607,3.607,0,0,1-2.883,3.529V74.914a.743.743,0,0,0-1.485,0v9.517a3.606,3.606,0,0,1-2.835-3.517V63.242h7.2Zm12.1,0a3.6,3.6,0,0,1-1.883,3.164V70.895a.743.743,0,1,0-1.485,0V84.349a.729.729,0,0,0,.016.154c-.083.006-.165.013-.249.013a3.606,3.606,0,0,1-3.6-3.6V63.242h7.2V80.913ZM24.772,61.757l.591-2.015H60.637l.591,2.015Z"/></g></g></svg>