<svg xmlns="http://www.w3.org/2000/svg" xmlns:xlink="http://www.w3.org/1999/xlink" width="107" height="107" viewBox="0 0 107 107"><defs><style>.a{fill:#fff;stroke:#707070;}.b{clip-path:url(#a);}.c{fill:#edba60;}</style><clipPath id="a"><rect class="a" width="107" height="107" transform="translate(234.721 1407)"/></clipPath></defs><g class="b" transform="translate(-234.721 -1407)"><g transform="translate(234.722 1407)"><path class="c" d="M52.754,61.419a2.09,2.09,0,0,0-2.785.988l-.347.728a2.089,2.089,0,1,0,3.773,1.8l.346-.728A2.089,2.089,0,0,0,52.754,61.419Z"/><path class="c" d="M29.339,49.311a2.089,2.089,0,0,0-2.955,0,4.448,4.448,0,0,1-6.283,0,2.089,2.089,0,1,0-2.955,2.955,8.631,8.631,0,0,0,12.192,0A2.089,2.089,0,0,0,29.339,49.311Z"/><path class="c" d="M99.765,5.551a18.96,18.96,0,0,0-26.711-.069,50.281,50.281,0,0,0-7.338-2.936A53.913,53.913,0,0,0,49.713,0c-11.333.008-21.219,4.763-25.8,12.415a19.277,19.277,0,0,0-1.514,3.133c-2.16,2.057-11.907,12.13-11.907,26.413,0,9.513-4.576,14.48-7.3,16.594a3.843,3.843,0,0,0,.472,6.385c1.028.578,2.184,1.132,3.3,1.668.988.474,2.393,1.148,3.078,1.586V71.92A3.912,3.912,0,0,1,9.746,73.4l-.518,1.275a5.391,5.391,0,0,0,.678,5.249v.458A4.552,4.552,0,0,0,11.5,83.843V86.3A9.544,9.544,0,0,0,21.03,95.83H27.2a2.089,2.089,0,0,0,0-4.178H21.03A5.362,5.362,0,0,1,15.675,86.3v-3.6a2.089,2.089,0,0,0-1.27-1.922l-.09-.038a.38.38,0,0,1-.231-.35V79.2a2.09,2.09,0,0,0-.447-1.292l-.369-.469a1.2,1.2,0,0,1-.169-1.195l.518-1.275a8.071,8.071,0,0,0,.6-3.051V67.473c0-2.013-2.051-3-5.448-4.627-.892-.428-1.81-.868-2.621-1.3,3.36-2.742,8.522-8.724,8.522-19.579,0-7.854,3.5-14.4,6.529-18.6a26.532,26.532,0,0,0,3.3,11.259c5.362,10.029,14.7,14.232,22.2,17.609,7.138,3.213,11.179,5.236,11.211,9.441.024,3.088-.687,5.36-2.111,6.752a5.823,5.823,0,0,1-3.84,1.567,2.053,2.053,0,0,0-1.785.815,2.087,2.087,0,0,0-.294,1.957,30.243,30.243,0,0,0,4.93,8.462c4.235,5.111,9.58,7.807,15.541,7.868l5.614,16.459a2.089,2.089,0,0,0,3.954-1.349L74.392,88A43.035,43.035,0,0,0,95.636,62.834a50.671,50.671,0,0,0,.565-27.7A18.943,18.943,0,0,0,99.765,5.551Zm-8.108,56.01A39.122,39.122,0,0,1,71.288,84.9c-5.083.228-9.516-1.872-13.181-6.248A26.633,26.633,0,0,1,54.859,73.7a9.584,9.584,0,0,0,3.794-2.218c2.314-2.216,3.471-5.527,3.438-9.84-.054-7.088-6.67-10.066-13.674-13.219-7.285-3.279-15.542-7-20.233-15.769-2.914-5.45-3.6-10.632-2.047-15.176l.019-.052a15.249,15.249,0,0,1,1.336-2.86C31.331,8.161,39.856,4.182,49.74,4.182h.06A50.044,50.044,0,0,1,64.467,6.532C75.135,9.874,82.993,16.1,87.823,25.04,93.928,36.338,95.361,49.99,91.657,61.561Zm3.3-30.6a52.4,52.4,0,0,0-3.453-7.9A41.068,41.068,0,0,0,76.9,7.626a14.76,14.76,0,1,1,18.052,23.33Z"/><path class="c" d="M55.292,97.869,48.746,86.532l-.221-7.741A12.684,12.684,0,0,0,36.86,66.5,11.59,11.59,0,0,0,25.5,73.054l-.1.218A12.745,12.745,0,0,0,29.94,89.347l6.516,4.247,7.118,12.329a2.089,2.089,0,0,0,3.618-2.089L40.869,92.882l2.52-1.455,2.52-1.455,5.765,9.985a2.089,2.089,0,0,0,3.619-2.088Zm-17.21-8.2-5.86-3.82a8.552,8.552,0,0,1-3.047-10.787l.1-.218a7.4,7.4,0,0,1,6.656-4.206q.293,0,.588.024a8.51,8.51,0,0,1,7.826,8.249l.2,7.023Z"/><path class="c" d="M58.423,103.434a2.088,2.088,0,1,0,.612,1.477A2.1,2.1,0,0,0,58.423,103.434Z"/><path class="c" d="M41.3,12.247a2.09,2.09,0,0,0-2.743-1.1,13.052,13.052,0,0,0-7.483,7.477c-1.143,3.253-.714,6.905,1.241,10.562A2.089,2.089,0,0,0,36,27.216c-1.408-2.634-1.739-5.059-.984-7.207a8.951,8.951,0,0,1,5.183-5.02A2.089,2.089,0,0,0,41.3,12.247Z"/><path class="c" d="M46.4,9.614H46.28a2.089,2.089,0,0,0,.012,4.178h.1a2.089,2.089,0,0,0,0-4.178Z"/></g></g></svg>