<svg xmlns="http://www.w3.org/2000/svg" xmlns:xlink="http://www.w3.org/1999/xlink" width="1440" height="236.86" viewBox="0 0 1440 236.86"><defs><style>.a{fill:#edba60;}.b{fill:url(#a);}</style><linearGradient id="a" x1="1" y1="0.5" x2="0" y2="0.5" gradientUnits="objectBoundingBox"><stop offset="0.005" stop-color="#6b2ba5"/><stop offset="1" stop-color="#9c69cc"/></linearGradient></defs><path class="a" d="M0,0V192.912c105.776-51.056,184.96-6.128,276.144-2.112,40.9,1.808,84.192-4.624,133.392-31.632,172.576-94.736,209.616,26,333.5,20.16,76.479-3.6,126.111-33.184,170.96-60.784,73.408-45.168,133.952-85.008,278.288,3.216,0,0,0,.016.016,0,127.391,77.872,204.24,90.912,247.7,86.784V0Z" transform="translate(0)"/><path class="b" d="M0,0V211.136c43.264,15.456,147.728,45.36,223.92,6.911,15.824-7.983,33.392-17.328,52.224-27.248,98.3-51.808,231.3-119.712,332.177-96.128,120.208,28.112,165.76-45.888,280.32,11.888,8.655,4.368,17.088,8.352,25.359,11.984,95.088,41.792,167.328,36.128,278.288,3.216h.016q10.655-3.144,21.839-6.656c113.088-35.376,181.281-27.057,225.856.64V0Z" transform="translate(0)"/></svg>