<svg xmlns="http://www.w3.org/2000/svg" xmlns:xlink="http://www.w3.org/1999/xlink" width="107" height="107" viewBox="0 0 107 107"><defs><style>.a{fill:#fff;stroke:#707070;}.b{clip-path:url(#a);}.c{fill:#edba60;}</style><clipPath id="a"><rect class="a" width="107" height="107" transform="translate(234.721 1407)"/></clipPath></defs><g class="b" transform="translate(-234.721 -1407)"><path class="c" d="M89.835,53.5A36.335,36.335,0,1,0,26.7,78.005l-7.727,7.727a1.783,1.783,0,0,0,2.522,2.522l7.738-7.738A36.316,36.316,0,0,0,89.835,53.5Zm-18.8-1.783H55.283V22.4C60.248,26.324,70.311,36.139,71.035,51.717ZM51.717,20.78V51.717H35.968a38.722,38.722,0,0,1,9.84-23.649,1.783,1.783,0,1,0-2.685-2.348,42.22,42.22,0,0,0-10.725,26H20.78A32.814,32.814,0,0,1,51.717,20.78ZM20.78,55.283H32.4c.644,15.144,9.372,25.324,15.143,30.441A32.832,32.832,0,0,1,20.78,55.283Zm15.184,0H51.717V84.577C42.893,77.573,36.518,67.305,35.964,55.283ZM55.283,86.22V55.283H71.032a38.86,38.86,0,0,1-10.449,24.33,1.783,1.783,0,0,0,2.637,2.4A42.349,42.349,0,0,0,74.6,55.283H80.25a1.783,1.783,0,1,0,0-3.567H74.6c-.643-15.14-9.367-25.322-15.136-30.439A32.769,32.769,0,0,1,55.283,86.22Zm38.327,5.092-8.644-8.644a1.783,1.783,0,0,0-2.522,2.522l8.693,8.693a8.58,8.58,0,1,0,2.474-2.57Zm4.807,12.122a5.016,5.016,0,1,1,5.016-5.016A5.021,5.021,0,0,1,98.418,103.433Zm-85.3-87.57,8.693,8.693a1.783,1.783,0,0,0,2.522-2.522l-8.644-8.645a8.582,8.582,0,1,0-2.57,2.474ZM8.582,3.567A5.016,5.016,0,1,1,3.567,8.582,5.021,5.021,0,0,1,8.582,3.567Zm0,86.269a8.582,8.582,0,1,0,8.582,8.582A8.592,8.592,0,0,0,8.582,89.835Zm0,13.6A5.016,5.016,0,1,1,13.6,98.418,5.021,5.021,0,0,1,8.582,103.433Zm76.384-79.1,8.644-8.644a8.582,8.582,0,1,0-2.474-2.57l-8.693,8.693a1.783,1.783,0,0,0,2.522,2.522ZM98.418,3.567A5.016,5.016,0,1,1,93.4,8.582,5.021,5.021,0,0,1,98.418,3.567Z" transform="translate(234.721 1407)"/></g></svg>