<svg xmlns="http://www.w3.org/2000/svg" xmlns:xlink="http://www.w3.org/1999/xlink" width="87" height="86" viewBox="0 0 87 86"><defs><style>.a{fill:#8d1616;}.b{clip-path:url(#a);}.c{fill:#7639ae;}</style><clipPath id="a"><rect class="a" width="87" height="86" transform="translate(224.326 1399)"/></clipPath></defs><g class="b" transform="translate(-224.326 -1399)"><g transform="translate(223.438 1397.613)"><path class="c" d="M62.419,79.065h2.774v2.774H62.419Z"/><path class="c" d="M62.419,73.516h2.774V76.29H62.419Z"/><path class="c" d="M62.419,67.968h2.774v2.774H62.419Z"/><path class="c" d="M56.871,73.516h2.774V76.29H56.871Z"/><path class="c" d="M56.871,67.968h2.774v2.774H56.871Z"/><path class="c" d="M56.871,79.065h2.774v2.774H56.871Z"/><path class="c" d="M73.516,56.871H76.29v2.774H73.516Z"/><path class="c" d="M79.065,56.871h2.774v2.774H79.065Z"/><path class="c" d="M67.968,56.871h2.774v2.774H67.968Z"/><path class="c" d="M73.516,62.419H76.29v2.774H73.516Z"/><path class="c" d="M79.065,62.419h2.774v2.774H79.065Z"/><path class="c" d="M73.516,67.968H76.29v2.774H73.516Z"/><path class="c" d="M79.065,67.968h2.774v2.774H79.065Z"/><path class="c" d="M73.516,73.516H76.29V76.29H73.516Z"/><path class="c" d="M79.065,73.516h2.774V76.29H79.065Z"/><path class="c" d="M79.065,79.065h2.774v2.774H79.065Z"/><path class="c" d="M73.516,79.065H76.29v2.774H73.516Z"/><path class="c" d="M62.419,41.849V62.419H59.513L56.739,34.677H53.756l-2.787-9.753,4.29,1.43h4.386v-11.1H55.259L48.82,17.4l-.613-2.146H45.774v-5.8a4.161,4.161,0,1,0-2.774,0v5.8H40.567L39.954,17.4l-6.439-2.146H29.129v11.1h4.386l4.289-1.43-2.787,9.753H32.034L29.259,62.419h-2.9V41.849L1.387,37.167v50.22h86V37.167ZM44.387,4.161A1.387,1.387,0,1,1,43,5.548,1.388,1.388,0,0,1,44.387,4.161ZM84.613,40.51v2.726L65.194,46.877V44.151Zm-16.645,44.1H54.1V65.194H67.968Zm-33.29,0H20.806V65.194H34.677ZM51.323,81.5,47.14,79.065l4.182-2.439Zm0-8.091-6.935,4.046-6.935-4.046V69.457l6.935-4.046,6.935,4.046ZM37.452,76.626l4.182,2.439L37.452,81.5Zm6.935,4.045,6.758,3.942H37.631Zm6.935-18.251v3.827l-4.183-2.44,9.188-5.36.4,3.973ZM44.387,46.942,37.628,43H51.145Zm10.5-2.912.96,9.6L47.14,48.548ZM41.634,48.548l-8.705,5.078.96-9.6Zm2.753,1.606,10.324,6.023L44.387,62.2,34.063,56.177ZM55.709,18.032h1.162v5.548H55.709l-5.664-1.888-.462-1.619ZM33.066,23.581H31.9V18.032h1.162l6.125,2.042-.462,1.619Zm9.593-5.548h3.457L50.87,34.677H37.9Zm11.57,19.419.277,2.774H34.268l.277-2.774Zm-21.782,21,9.188,5.36-4.183,2.44V62.419h-5.4Zm-8.866-14.3v2.726L4.161,43.236V40.51ZM4.161,46.059,23.581,49.7v12.72H18.032V84.613H4.161ZM70.742,84.613V62.419H65.194V49.7l19.419-3.641V84.613Z"/><path class="c" d="M23.581,79.065h2.774v2.774H23.581Z"/><path class="c" d="M23.581,73.516h2.774V76.29H23.581Z"/><path class="c" d="M23.581,67.968h2.774v2.774H23.581Z"/><path class="c" d="M29.129,73.516H31.9V76.29H29.129Z"/><path class="c" d="M29.129,67.968H31.9v2.774H29.129Z"/><path class="c" d="M29.129,79.065H31.9v2.774H29.129Z"/><path class="c" d="M12.484,56.871h2.774v2.774H12.484Z"/><path class="c" d="M6.935,56.871H9.71v2.774H6.935Z"/><path class="c" d="M18.032,56.871h2.774v2.774H18.032Z"/><path class="c" d="M73.516,51.323H76.29V54.1H73.516Z"/><path class="c" d="M67.968,51.323h2.774V54.1H67.968Z"/><path class="c" d="M79.065,51.323h2.774V54.1H79.065Z"/><path class="c" d="M12.484,51.323h2.774V54.1H12.484Z"/><path class="c" d="M6.935,51.323H9.71V54.1H6.935Z"/><path class="c" d="M18.032,51.323h2.774V54.1H18.032Z"/><path class="c" d="M12.484,62.419h2.774v2.774H12.484Z"/><path class="c" d="M6.935,62.419H9.71v2.774H6.935Z"/><path class="c" d="M12.484,67.968h2.774v2.774H12.484Z"/><path class="c" d="M6.935,67.968H9.71v2.774H6.935Z"/><path class="c" d="M6.935,73.516H9.71V76.29H6.935Z"/><path class="c" d="M12.484,73.516h2.774V76.29H12.484Z"/><path class="c" d="M6.935,79.065H9.71v2.774H6.935Z"/><path class="c" d="M12.484,79.065h2.774v2.774H12.484Z"/><path class="c" d="M65.936,25.711a6.944,6.944,0,0,0,0-9.808l-1.961,1.961a4.166,4.166,0,0,1,0,5.885Z"/><path class="c" d="M67.9,27.673l1.961,1.961a12.5,12.5,0,0,0,0-17.655L67.9,13.94A9.72,9.72,0,0,1,67.9,27.673Z"/><path class="c" d="M22.839,25.711,24.8,23.75a4.166,4.166,0,0,1,0-5.885L22.839,15.9A6.944,6.944,0,0,0,22.839,25.711Z"/><path class="c" d="M20.876,27.673a9.721,9.721,0,0,1,0-13.731L18.914,11.98a12.5,12.5,0,0,0,0,17.655Z"/></g></g></svg>