<svg xmlns="http://www.w3.org/2000/svg" xmlns:xlink="http://www.w3.org/1999/xlink" width="39" height="39" viewBox="0 0 39 39"><defs><style>.a{fill:#c72020;}.b{clip-path:url(#a);}.c{opacity:0.66;}.d{fill:#d6d6d6;}</style><clipPath id="a"><rect class="a" width="39" height="39" transform="translate(709 711)"/></clipPath></defs><g class="b" transform="translate(-709 -711)"><g class="c" transform="translate(709 711)"><path class="d" d="M3.9,7.8H0V35.1A3.9,3.9,0,0,0,3.9,39H31.2V35.1H3.9Z"/><path class="d" d="M35.1,0H11.7A3.9,3.9,0,0,0,7.8,3.9V27.3a3.9,3.9,0,0,0,3.9,3.9H35.1A3.9,3.9,0,0,0,39,27.3V3.9A3.9,3.9,0,0,0,35.1,0ZM33.15,17.55h-7.8v7.8h-3.9v-7.8h-7.8v-3.9h7.8V5.85h3.9v7.8h7.8Z"/></g></g></svg>