<svg xmlns="http://www.w3.org/2000/svg" xmlns:xlink="http://www.w3.org/1999/xlink" width="87" height="86" viewBox="0 0 87 86"><defs><style>.a{fill:#8d1616;}.b{clip-path:url(#a);}.c{fill:#7639ae;}</style><clipPath id="a"><rect class="a" width="87" height="86" transform="translate(224.326 1399)"/></clipPath></defs><g class="b" transform="translate(-224.326 -1399)"><g transform="translate(224.326 1398.5)"><circle class="c" cx="1.274" cy="1.274" r="1.274" transform="translate(63.059 9.793)"/><circle class="c" cx="1.274" cy="1.274" r="1.274" transform="translate(69.841 9.793)"/><circle class="c" cx="1.274" cy="1.274" r="1.274" transform="translate(76.623 9.793)"/><path class="c" d="M38.5,54.3a3.029,3.029,0,0,0,1.517-.411l10.161-5.867A3,3,0,0,0,51.7,45.4,3.105,3.105,0,0,0,51.676,45a2.993,2.993,0,0,0-1.311-2.122l0,0-.005,0h0c-.056-.037-.113-.072-.171-.106L40.022,36.9a3.035,3.035,0,0,0-4.552,2.628V51.264A3.046,3.046,0,0,0,38.5,54.3Zm-.486-14.773a.486.486,0,0,1,.729-.421l10.161,5.867a.486.486,0,0,1,0,.842L38.747,51.685a.486.486,0,0,1-.729-.421Z"/><path class="c" d="M73.643,25.517H13.527a2.57,2.57,0,0,0-2.567,2.567V62.711a2.57,2.57,0,0,0,2.567,2.567h12.3a1.274,1.274,0,0,0,0-2.549h-12.3a.018.018,0,0,1-.018-.018V28.084a.018.018,0,0,1,.018-.018H73.643a.018.018,0,0,1,.018.018V62.711a.018.018,0,0,1-.018.018H30.926a1.274,1.274,0,0,0,0,2.549H73.643a2.57,2.57,0,0,0,2.567-2.567V28.084a2.57,2.57,0,0,0-2.567-2.567Z"/><path class="c" d="M74.936,71.55h-52.4a3.976,3.976,0,0,0-3.82-2.892h-.393a3.976,3.976,0,0,0-3.82,2.892H12.234a1.274,1.274,0,1,0,0,2.549h2.271a3.976,3.976,0,0,0,3.82,2.892h.393a3.976,3.976,0,0,0,3.82-2.892h52.4a1.274,1.274,0,0,0,0-2.549Zm-54.8,1.471a1.423,1.423,0,0,1-1.421,1.421h-.393A1.423,1.423,0,0,1,16.9,73.021v-.393a1.423,1.423,0,0,1,1.421-1.421h.393a1.423,1.423,0,0,1,1.421,1.421Z"/><path class="c" d="M80.921,2.368H31.713a1.274,1.274,0,0,0,0,2.549H80.921a3.534,3.534,0,0,1,3.53,3.53v8.772H2.549V8.447a3.534,3.534,0,0,1,3.53-3.53H26.616a1.274,1.274,0,1,0,0-2.549H6.079A6.086,6.086,0,0,0,0,8.447V78.553a6.086,6.086,0,0,0,6.079,6.079H80.921A6.086,6.086,0,0,0,87,78.553V8.447a6.086,6.086,0,0,0-6.079-6.079Zm0,79.716H6.079a3.534,3.534,0,0,1-3.53-3.53V19.767h81.9V78.553A3.534,3.534,0,0,1,80.921,82.083Z"/></g></g></svg>