<svg xmlns="http://www.w3.org/2000/svg" xmlns:xlink="http://www.w3.org/1999/xlink" width="107" height="107" viewBox="0 0 107 107"><defs><style>.a{fill:#fff;stroke:#707070;}.b{clip-path:url(#a);}.c{fill:#edba60;}</style><clipPath id="a"><rect class="a" width="107" height="107" transform="translate(234.721 1407)"/></clipPath></defs><g class="b" transform="translate(-234.721 -1407)"><g transform="translate(234.721 1407)"><path class="c" d="M31.557,87.982a12.5,12.5,0,0,0-3.99-9.16V78.8c.222-3.069.4-6.3.539-9.643,6.419,1.209,10.967,3.643,13.541,7.258,3.32,4.661,2.436,10.135,2.086,11.7A9.439,9.439,0,0,0,50.9,99.64a47.931,47.931,0,0,0,9.052.872A47.355,47.355,0,0,0,107,53.5C107.007,27.039,83.993,5.45,59.958,6.313c-13.132.472-24.933,6.941-33.07,14.061q-.156-1.455-.327-2.831a75.506,75.506,0,0,0-2.1-11.316C23.92,4.363,22.64,0,19.018,0s-4.9,4.363-5.448,6.227a75.533,75.533,0,0,0-2.1,11.316A307.282,307.282,0,0,0,9.613,53.5c0,8.843.3,17.593.853,25.3v.018a12.5,12.5,0,0,0-3.99,9.16v6.479A6.462,6.462,0,0,1,0,100.73V107H12.748A18.979,18.979,0,0,0,31.557,87.982Zm28.626-75.4c20.2-.725,40.554,17.716,40.547,40.92A41.006,41.006,0,0,1,52.082,93.484a3.2,3.2,0,0,1-2.229-4c.632-2.828,1.595-10.117-3.1-16.706-3.682-5.169-9.879-8.51-18.444-9.952.073-3.071.11-9.564.11-9.681a9.4,9.4,0,1,0-.19-12.055c-.139-4.453-.354-8.725-.638-12.718,7.094-7.494,19.087-15.313,32.59-15.8ZM32.518,46.2a3.135,3.135,0,1,1,2.216,3.839A3.133,3.133,0,0,1,32.518,46.2ZM17.386,20.991a100.363,100.363,0,0,1,1.631-10.768,100.362,100.362,0,0,1,1.631,10.768,319.14,319.14,0,0,1,1.5,32.509q0,1.571-.013,3.135H15.9q-.013-1.564-.013-3.135a319.14,319.14,0,0,1,1.5-32.509ZM16,62.9h6.042c-.107,4.427-.29,8.732-.544,12.788a12.55,12.55,0,0,0-4.953,0C16.287,71.634,16.1,67.329,16,62.9ZM12.748,94.461V87.982a6.27,6.27,0,1,1,12.539,0A12.659,12.659,0,0,1,12.748,100.73H11.023A12.2,12.2,0,0,0,12.748,94.461Z"/><path class="c" d="M84.152,42.417a9.4,9.4,0,1,0-13.3,0,9.4,9.4,0,0,0,13.3,0Zm-8.867-8.866a3.135,3.135,0,1,1,0,4.433A3.139,3.139,0,0,1,75.286,33.551Z"/><path class="c" d="M55.713,38.36a9.4,9.4,0,1,0-11.518-6.65A9.415,9.415,0,0,0,55.713,38.36ZM52.468,26.248a3.135,3.135,0,1,1-2.216,3.839,3.139,3.139,0,0,1,2.216-3.839Z"/><path class="c" d="M57.176,80.158a9.4,9.4,0,1,0,6.65-11.518A9.415,9.415,0,0,0,57.176,80.158ZM65.449,74.7a3.135,3.135,0,1,1-2.217,3.839A3.133,3.133,0,0,1,65.449,74.7Z"/><path class="c" d="M74.909,57.557a9.4,9.4,0,1,0,11.518-6.65A9.415,9.415,0,0,0,74.909,57.557ZM87.021,60.8A3.135,3.135,0,1,1,84.8,56.963,3.133,3.133,0,0,1,87.021,60.8Z"/></g></g></svg>