<svg xmlns="http://www.w3.org/2000/svg" xmlns:xlink="http://www.w3.org/1999/xlink" width="107" height="107" viewBox="0 0 107 107"><defs><style>.a{fill:#fff;stroke:#707070;}.b{clip-path:url(#a);}.c{fill:#edba60;}</style><clipPath id="a"><rect class="a" width="107" height="107" transform="translate(234.721 1407)"/></clipPath></defs><g class="b" transform="translate(-234.721 -1407)"><g transform="translate(234.721 1407)"><path class="c" d="M51.167,64.367H39.847V38.593a2.09,2.09,0,0,0-4.18,0v14.42H30.652V4.18h5.016v15.6a2.09,2.09,0,0,0,4.18,0V2.09A2.09,2.09,0,0,0,37.757,0h-9.2a2.09,2.09,0,0,0-2.09,2.09V64.367H15.152a7.5,7.5,0,0,0-7.489,7.489v5.508A50.949,50.949,0,0,1,.3,103.825,2.09,2.09,0,0,0,2.09,107H48.9a2.089,2.089,0,0,0,1.786-1.005,55.127,55.127,0,0,0,7.967-28.631V71.856A7.5,7.5,0,0,0,51.167,64.367ZM30.652,57.192h5.016v7.175H30.652Zm-15.5,11.355H51.167a3.313,3.313,0,0,1,3.309,3.309v3.4H11.843v-3.4A3.313,3.313,0,0,1,15.152,68.547ZM47.711,102.82H36.866a55.434,55.434,0,0,0,4.252-10.926,2.09,2.09,0,0,0-4.033-1.1A50.954,50.954,0,0,1,32.1,102.82H21.262a55.424,55.424,0,0,0,4.252-10.926,2.09,2.09,0,0,0-4.033-1.1A50.955,50.955,0,0,1,16.5,102.82H5.661A55.171,55.171,0,0,0,11.8,79.454H54.434A50.917,50.917,0,0,1,47.711,102.82Z"/><path class="c" d="M72.518,81.036a7.62,7.62,0,0,0-5.425,2.247,2.09,2.09,0,0,0,2.956,2.955,3.492,3.492,0,1,1,4.939,4.939,2.09,2.09,0,1,0,2.955,2.955,7.672,7.672,0,0,0-5.425-13.1Z"/><path class="c" d="M70.606,55.59a3.557,3.557,0,0,1,3.553,3.553,2.09,2.09,0,0,0,4.18,0,7.732,7.732,0,0,0-15.465,0,2.09,2.09,0,0,0,4.18,0A3.557,3.557,0,0,1,70.606,55.59Z"/><path class="c" d="M98.7,80.466a12.328,12.328,0,0,0-19.356-14.8,2.09,2.09,0,1,0,2.893,3.017,8.146,8.146,0,0,1,11.555,11.48,2.09,2.09,0,0,0,1.137,3.492A9.665,9.665,0,1,1,84.9,98.182a2.09,2.09,0,1,0-3.567,2.178A13.847,13.847,0,1,0,98.7,80.466Z"/><path class="c" d="M37.757,27.1a2.091,2.091,0,1,0,1.478.612A2.1,2.1,0,0,0,37.757,27.1Z"/></g></g></svg>