<svg xmlns="http://www.w3.org/2000/svg" xmlns:xlink="http://www.w3.org/1999/xlink" width="107" height="107" viewBox="0 0 107 107"><defs><style>.a{fill:#fff;stroke:#707070;}.b{clip-path:url(#a);}.c{fill:#edba60;}</style><clipPath id="a"><rect class="a" width="107" height="107" transform="translate(234.721 1407)"/></clipPath></defs><g class="b" transform="translate(-234.721 -1407)"><g transform="translate(234.618 1407)"><path class="c" d="M72.589,32.424a2.089,2.089,0,1,0,2.09,2.089A2.089,2.089,0,0,0,72.589,32.424Zm0,0"/><path class="c" d="M34.617,70.394a2.09,2.09,0,1,0,2.09,2.09A2.089,2.089,0,0,0,34.617,70.394Zm0,0"/><path class="c" d="M104.5,12.857a2.088,2.088,0,0,0-1.956.563l-8.664,8.732H89.731l-4.572-4.737V13.2L93.7,4.536a2.09,2.09,0,0,0-.821-3.447A20.915,20.915,0,0,0,66.013,26.313L50.619,41.707,24.973,16V10.957a2.089,2.089,0,0,0-1.015-1.792L9.181.3A2.088,2.088,0,0,0,6.629.612L.718,6.522A2.092,2.092,0,0,0,.4,9.075L9.27,23.852a2.09,2.09,0,0,0,1.791,1.015l5.043,0L41.753,50.573,26.418,65.909A20.911,20.911,0,0,0,1.194,92.773a2.09,2.09,0,0,0,3.464.8l8.663-8.732H17.5L22.256,89.6v4.176l-8.732,8.663a2.09,2.09,0,0,0,.8,3.464,20.9,20.9,0,0,0,23.635-7.613,20.665,20.665,0,0,0,3.229-17.61L53.51,68.368l2.821,3.065-1.295,1.294a2.09,2.09,0,1,0,2.956,2.956l1.172-1.172,26.471,28.753c.02.021.04.042.06.062A12.54,12.54,0,0,0,103.43,85.591c-.021-.021-.043-.042-.065-.062l-28.8-26.42,1.159-1.159a2.09,2.09,0,0,0-2.956-2.955l-1.286,1.287-3.07-2.818L80.79,41.087a20.91,20.91,0,0,0,25.222-26.863,2.088,2.088,0,0,0-1.507-1.368ZM18.45,21.3a2.068,2.068,0,0,0-1.478-.593l-4.727,0L4.828,8.324l3.6-3.6,12.363,7.419v4.727a2.089,2.089,0,0,0,.611,1.476l26.26,26.32-2.956,2.955ZM71.608,62.068l28.9,26.509A8.361,8.361,0,0,1,88.68,100.4L62.123,71.552Zm-3.083-2.829-9.237,9.235L56.468,65.41l8.988-8.989ZM86.2,37.616a16.7,16.7,0,0,1-5.341-.871,2.093,2.093,0,0,0-2.145.5L37.353,78.613a2.089,2.089,0,0,0-.5,2.145A16.735,16.735,0,0,1,21,102.818a17.118,17.118,0,0,1-1.822-.1l6.638-6.586a2.089,2.089,0,0,0,.618-1.483V88.739a2.09,2.09,0,0,0-.612-1.478L19.84,81.278a2.09,2.09,0,0,0-1.478-.612H12.451a2.092,2.092,0,0,0-1.484.618L4.381,87.921a16.906,16.906,0,0,1-.1-1.822,16.736,16.736,0,0,1,22.06-15.848,2.088,2.088,0,0,0,2.145-.5L69.853,28.384a2.09,2.09,0,0,0,.5-2.145A16.734,16.734,0,0,1,86.2,4.18a17.078,17.078,0,0,1,1.877.1l-6.5,6.6a2.088,2.088,0,0,0-.6,1.466v5.912a2.087,2.087,0,0,0,.586,1.451l5.774,5.983a2.088,2.088,0,0,0,1.5.638h5.912a2.089,2.089,0,0,0,1.483-.618l6.585-6.637a16.906,16.906,0,0,1,.1,1.822A16.737,16.737,0,0,1,86.2,37.616Zm0,0"/><path class="c" d="M65.2,38.945,39.049,65.1A2.09,2.09,0,1,0,42,68.052L68.157,41.9A2.09,2.09,0,1,0,65.2,38.945Zm0,0"/><path class="c" d="M91.609,94.461a2.09,2.09,0,1,0,2.951-2.96L75.723,72.724a2.09,2.09,0,0,0-2.951,2.96Zm0,0"/></g></g></svg>