<svg xmlns="http://www.w3.org/2000/svg" xmlns:xlink="http://www.w3.org/1999/xlink" width="87" height="86" viewBox="0 0 87 86"><defs><style>.a{fill:#8d1616;}.b{clip-path:url(#a);}.c{fill:#7639ae;}</style><clipPath id="a"><rect class="a" width="87" height="86" transform="translate(224.326 1399)"/></clipPath></defs><g class="b" transform="translate(-224.326 -1399)"><g transform="translate(224.826 1399)"><path class="c" d="M84.53,74.651a1.434,1.434,0,0,0-.573-.12H72.263v-8.6H83.957a1.433,1.433,0,0,0,1.313-2.007,15.7,15.7,0,0,0-23.04-6.873V54.465H59.363v4.966A15.774,15.774,0,0,0,56.8,63.065H45.03V52.632l7.619-2.54a1.433,1.433,0,0,0,.98-1.36v-4.3H60.8A7.175,7.175,0,0,1,67.963,51.6H70.83A10.045,10.045,0,0,0,60.8,41.566H50.764V36.76A14.333,14.333,0,0,0,57.93,24.366V17.2H65.1V14.333H57.93V8.6A8.608,8.608,0,0,0,49.33,0H37.864a8.608,8.608,0,0,0-8.6,8.6v5.733H23.531A1.433,1.433,0,0,0,22.1,15.766v8.6A1.433,1.433,0,0,0,23.531,25.8h1.433v7.167a1.433,1.433,0,0,0,.638,1.193l4.3,2.867,1.591-2.385L27.831,32.2V25.8h1.506a14.343,14.343,0,0,0,7.093,10.96v4.806H26.4A10.045,10.045,0,0,0,16.364,51.6h2.867A7.175,7.175,0,0,1,26.4,44.432h7.167v4.3a1.433,1.433,0,0,0,.98,1.36l7.619,2.54V63.065H30.4a15.774,15.774,0,0,0-2.567-3.633V54.465H24.964v2.58A15.754,15.754,0,1,0,30.4,77.4H56.8a15.752,15.752,0,0,0,28.474-.86A1.433,1.433,0,0,0,84.53,74.651ZM29.264,22.933h-4.3V17.2h4.3ZM50.764,47.7l-3.656,1.22,2.99-4.486h.666ZM39.3,41.566V38.038a14.322,14.322,0,0,0,8.6,0v3.527ZM32.131,8.6a5.733,5.733,0,0,1,5.733-5.733H49.33A5.733,5.733,0,0,1,55.064,8.6v5.733H32.131Zm0,15.766V17.2H55.064v7.167a11.466,11.466,0,0,1-22.933,0Zm4.3,23.333V44.432H37.1l2.99,4.486Zm4.111-3.266h6.112L43.6,49.019ZM63.677,80.965a12.883,12.883,0,0,1-4.662-5.574,1.433,1.433,0,0,0-1.313-.86H29.492a1.433,1.433,0,0,0-1.313.86,12.9,12.9,0,1,1,0-10.32,1.433,1.433,0,0,0,1.313.86H57.7a1.434,1.434,0,0,0,1.313-.86,12.884,12.884,0,0,1,22.53-2.007H70.83A1.433,1.433,0,0,0,69.4,64.5V75.965A1.433,1.433,0,0,0,70.83,77.4H81.545A12.884,12.884,0,0,1,63.677,80.965Z"/><path class="c" d="M24.269,64.7,17.1,60.4a1.434,1.434,0,0,0-1.476,0L8.46,64.7a1.434,1.434,0,0,0-.7,1.21L7.646,74.99a1.433,1.433,0,0,0,.767,1.289L15.7,80.1a1.433,1.433,0,0,0,1.4-.042l7.167-4.3a1.433,1.433,0,0,0,.7-1.228v-8.6A1.433,1.433,0,0,0,24.269,64.7ZM22.1,73.72l-5.781,3.469-5.795-3.04.1-7.4L16.364,63.3l5.733,3.44Z"/><rect class="c" width="28.666" height="2.867" transform="translate(29.264 68.799)"/><rect class="c" width="2.867" height="7.167" transform="translate(42.164 20.066)"/><rect class="c" width="8.6" height="2.867" transform="translate(47.897 57.332)"/></g></g></svg>