<svg xmlns="http://www.w3.org/2000/svg" xmlns:xlink="http://www.w3.org/1999/xlink" width="107" height="107" viewBox="0 0 107 107"><defs><style>.a{fill:#fff;stroke:#707070;}.b{clip-path:url(#a);}.c{fill:#edba60;}</style><clipPath id="a"><rect class="a" width="107" height="107" transform="translate(234.721 1407)"/></clipPath></defs><g class="b" transform="translate(-234.721 -1407)"><g transform="translate(234.721 1407)"><path class="c" d="M80.175,7.441V5.335a5.335,5.335,0,1,0-10.67,0V7.113H65.948V5.335a5.335,5.335,0,1,0-10.67,0V7.113H51.722V5.335A5.335,5.335,0,0,0,46.387,0H28.6a5.335,5.335,0,0,0-5.335,5.335V40.9A5.335,5.335,0,0,0,28.6,46.237H44.608v1.778A5.309,5.309,0,0,0,46.25,51.85L31.719,106.079l3.436.921L49.54,53.31c.137.011.265.041.4.041h1.778V106.7h3.557V53.351h1.778c.139,0,.267-.03.4-.041L71.845,107l3.436-.921L60.75,51.85a5.309,5.309,0,0,0,1.641-3.834V46.237H78.4A5.335,5.335,0,0,0,83.732,40.9V12.448A5.335,5.335,0,0,0,80.175,7.441ZM73.062,5.335a1.778,1.778,0,1,1,3.557,0V7.113H73.062Zm-14.227,0a1.778,1.778,0,0,1,3.557,0V7.113H58.835Zm0,42.68a1.778,1.778,0,0,1-1.778,1.778H49.943a1.778,1.778,0,0,1-1.778-1.778V46.237h10.67ZM80.175,40.9A1.778,1.778,0,0,1,78.4,42.68H28.6A1.778,1.778,0,0,1,26.825,40.9V5.335A1.778,1.778,0,0,1,28.6,3.557H46.387a1.778,1.778,0,0,1,1.778,1.778V10.67H78.4a1.778,1.778,0,0,1,1.778,1.778Z"/><rect class="c" width="14.227" height="3.557" transform="translate(30.381 7.113)"/><path class="c" d="M53.5,12.448A14.227,14.227,0,1,0,67.727,26.675,14.227,14.227,0,0,0,53.5,12.448Zm0,24.9a10.67,10.67,0,1,1,10.67-10.67A10.67,10.67,0,0,1,53.5,37.345Z"/><path class="c" d="M53.5,19.562a7.113,7.113,0,1,0,7.113,7.113A7.113,7.113,0,0,0,53.5,19.562Zm0,10.67a3.557,3.557,0,1,1,3.557-3.557A3.557,3.557,0,0,1,53.5,30.232Z"/></g></g></svg>